<svg id="Layer_1" data-name="Layer 1" xmlns="http://www.w3.org/2000/svg" viewBox="0 0 260 70">
  <defs>
    <style>
      .cls-1 {
        font-size: 24px;
      }

      .cls-1, .cls-2 {
        fill: #333;
        font-family: Roboto-Bold, Roboto;
        font-weight: 700;
      }

      .cls-2 {
        font-size: 10px;
      }

      .cls-3 {
        opacity: 0.5;
      }

      .cls-4 {
        fill: #00a8b4;
      }
    </style>
  </defs>
  <title>2 womens participation copy</title>
  <text class="cls-1" transform="translate(174.92 35)">24.3%</text>
  <text class="cls-2" transform="translate(174.92 48.26)">global share<tspan x="0" y="10.8">of women MPs</tspan></text>
  <g>
    <g class="cls-3">
      <path class="cls-4" d="M68.79,24a3,3,0,1,0-3-3A3,3,0,0,0,68.79,24Z"/>
      <path class="cls-4" d="M71.78,24.71h-6a3.83,3.83,0,0,0-3.73,3.88v9.09a1.24,1.24,0,1,0,2.48,0V29.27H65V52.13a1.72,1.72,0,1,0,3.44,0V39h.64V52.14a1.72,1.72,0,1,0,3.44,0V29.27H73v8.41a1.28,1.28,0,1,0,2.56,0V28.59A3.84,3.84,0,0,0,71.78,24.71Z"/>
    </g>
    <g class="cls-3">
      <path class="cls-4" d="M84.32,24a3,3,0,1,0-3-3A3,3,0,0,0,84.32,24Z"/>
      <path class="cls-4" d="M87.32,24.71h-6a3.83,3.83,0,0,0-3.73,3.88v9.09a1.24,1.24,0,1,0,2.48,0V29.27h.48V52.13a1.72,1.72,0,1,0,3.44,0V39h.64V52.14a1.72,1.72,0,1,0,3.44,0V29.27h.4v8.41a1.29,1.29,0,1,0,2.57,0V28.59A3.85,3.85,0,0,0,87.32,24.71Z"/>
    </g>
    <g class="cls-3">
      <path class="cls-4" d="M99.85,24a3,3,0,1,0-3-3A3,3,0,0,0,99.85,24Z"/>
      <path class="cls-4" d="M102.85,24.71h-6a3.84,3.84,0,0,0-3.73,3.88v9.09a1.24,1.24,0,1,0,2.48,0V29.27h.48V52.13a1.72,1.72,0,1,0,3.44,0V39h.65V52.14a1.72,1.72,0,1,0,3.44,0V29.27h.4v8.41a1.28,1.28,0,1,0,2.56,0V28.59A3.84,3.84,0,0,0,102.85,24.71Z"/>
    </g>
    <g class="cls-3">
      <path class="cls-4" d="M115.39,24a3,3,0,1,0-3-3A3,3,0,0,0,115.39,24Z"/>
      <path class="cls-4" d="M118.38,24.71h-6a3.84,3.84,0,0,0-3.73,3.88v9.09a1.25,1.25,0,1,0,2.49,0V29.27h.48V52.13a1.72,1.72,0,1,0,3.44,0V39h.64V52.14a1.72,1.72,0,1,0,3.44,0V29.27h.4v8.41a1.28,1.28,0,1,0,2.56,0V28.59A3.84,3.84,0,0,0,118.38,24.71Z"/>
    </g>
    <g class="cls-3">
      <path class="cls-4" d="M130.92,24a3,3,0,1,0-3-3A3,3,0,0,0,130.92,24Z"/>
      <path class="cls-4" d="M133.91,24.71h-6a3.83,3.83,0,0,0-3.73,3.88v9.09a1.24,1.24,0,1,0,2.48,0V29.27h.48V52.13a1.72,1.72,0,1,0,3.44,0V39h.64V52.14a1.72,1.72,0,1,0,3.44,0V29.27h.4v8.41a1.28,1.28,0,1,0,2.56,0V28.59A3.84,3.84,0,0,0,133.91,24.71Z"/>
    </g>
    <g class="cls-3">
      <path class="cls-4" d="M146.45,24a3,3,0,1,0-3-3A3,3,0,0,0,146.45,24Z"/>
      <path class="cls-4" d="M149.44,24.71h-6a3.83,3.83,0,0,0-3.73,3.88v9.09a1.24,1.24,0,1,0,2.48,0V29.27h.48V52.13a1.72,1.72,0,1,0,3.44,0V39h.64V52.14a1.72,1.72,0,1,0,3.44,0V29.27h.4v8.41a1.28,1.28,0,1,0,2.56,0V28.59A3.84,3.84,0,0,0,149.44,24.71Z"/>
    </g>
    <g class="cls-3">
      <path class="cls-4" d="M162,24a3,3,0,1,0-3-3A3,3,0,0,0,162,24Z"/>
      <path class="cls-4" d="M165,24.71h-6a3.83,3.83,0,0,0-3.73,3.88v9.09a1.24,1.24,0,1,0,2.48,0V29.27h.48V52.13a1.72,1.72,0,1,0,3.44,0V39h.64V52.14a1.72,1.72,0,1,0,3.44,0V29.27h.4v8.41a1.28,1.28,0,1,0,2.56,0V28.59A3.84,3.84,0,0,0,165,24.71Z"/>
    </g>
    <g>
      <path class="cls-4" d="M12.72,25.5A3.72,3.72,0,1,0,9,21.79,3.72,3.72,0,0,0,12.72,25.5Z"/>
      <path class="cls-4" d="M22.3,37.08a0,0,0,0,0,0,0l-3.48-8.58c-.28-.59-1.12-2.37-3-2.37H9.66c-1.9,0-2.75,1.78-3,2.38L3.15,37.05v0A1.72,1.72,0,1,0,6.35,38.3l2.56-6.37a.07.07,0,0,0,0-.05.26.26,0,0,1,.24-.16.25.25,0,0,1,.25.25.3.3,0,0,1,0,.1L5.08,42.76a1.43,1.43,0,0,0-.09.5,1.33,1.33,0,0,0,1.33,1.33H8.78v7.85a1.63,1.63,0,0,0,1.75,1.48,1.64,1.64,0,0,0,1.76-1.48V44.53h.87v7.9a1.64,1.64,0,0,0,1.76,1.49,1.65,1.65,0,0,0,1.76-1.46V44.59h2.45a1.32,1.32,0,0,0,1.24-1.82l-4.31-10.7a.31.31,0,0,1,0-.1.24.24,0,0,1,.24-.25.26.26,0,0,1,.24.16s0,0,0,.05l2.56,6.36a1.74,1.74,0,0,0,1.62,1.14,1.72,1.72,0,0,0,1.71-1.72A1.63,1.63,0,0,0,22.3,37.08Z"/>
    </g>
    <g>
      <path class="cls-4" d="M33,25.5a3.72,3.72,0,1,0-3.72-3.71A3.71,3.71,0,0,0,33,25.5Z"/>
      <path class="cls-4" d="M42.54,37.08s0,0,0,0l-3.48-8.58c-.28-.59-1.13-2.37-3-2.37H29.89c-1.9,0-2.74,1.78-3,2.38l-3.47,8.57,0,0a2,2,0,0,0-.12.63,1.72,1.72,0,0,0,3.33.59l2.57-6.37a.43.43,0,0,0,0-.05.25.25,0,0,1,.24-.16.25.25,0,0,1,.24.25.31.31,0,0,1,0,.1L25.32,42.76a1.44,1.44,0,0,0-.1.5,1.34,1.34,0,0,0,1.34,1.33H29v7.85a1.78,1.78,0,0,0,3.51,0V44.53h.87v7.9a1.78,1.78,0,0,0,3.51,0V44.59h2.46a1.34,1.34,0,0,0,1.24-1.82l-4.31-10.7a.3.3,0,0,1,0-.1.25.25,0,0,1,.48-.09l0,.05,2.56,6.36a1.71,1.71,0,0,0,3.33-.58A1.84,1.84,0,0,0,42.54,37.08Z"/>
    </g>
    <g>
      <path class="cls-4" d="M53.26,25.5V18.07a3.72,3.72,0,1,0,0,7.43Z"/>
      <path class="cls-4" d="M52.82,44.53h.44V26.1H50.2c-1.9,0-2.75,1.78-3,2.38l-3.47,8.57v0a1.72,1.72,0,0,0,1.59,2.35,1.74,1.74,0,0,0,1.62-1.13l2.56-6.37a.43.43,0,0,0,0-.05.26.26,0,0,1,.24-.16A.25.25,0,0,1,50,32a.3.3,0,0,1,0,.1L45.62,42.76a1.44,1.44,0,0,0-.1.5,1.34,1.34,0,0,0,1.34,1.33h2.45v7.85a1.79,1.79,0,0,0,3.52,0V44.53Z"/>
    </g>
    <g class="cls-3">
      <path class="cls-4" d="M53.26,24a3,3,0,0,0,0-6Z"/>
      <path class="cls-4" d="M56.25,24.71h-3V39h.32V52.14a1.72,1.72,0,1,0,3.44,0V29.27h.4v8.41a1.28,1.28,0,1,0,2.56,0V28.59A3.84,3.84,0,0,0,56.25,24.71Z"/>
    </g>
  </g>
</svg>
