<svg id="Layer_1" data-name="Layer 1" xmlns="http://www.w3.org/2000/svg" viewBox="0 0 54.56 54.56">
  <defs>
    <style>
      .cls-1 {
        fill: #00a8b4;
      }

      .cls-2 {
        fill: #fff;
      }

      .cls-3 {
        fill: none;
      }
    </style>
  </defs>
  <title>2 gender equality</title>
  <path class="cls-1" d="M54.56,27.11A27.28,27.28,0,1,1,27.28-.16,27.28,27.28,0,0,1,54.56,27.11"/>
  <path class="cls-2" d="M35.68,25.09a10.92,10.92,0,0,0-16.8,0,8.91,8.91,0,1,1,16.8,0m.53,7a8.94,8.94,0,1,1-17.87,0,8.78,8.78,0,0,1,.56-3,8.12,8.12,0,0,0,.65.8,10.94,10.94,0,0,0,15.46,0,9.87,9.87,0,0,0,.65-.8,8.77,8.77,0,0,1,.55,3m-.55-25v2h3.25l-4.68,4.68A10.87,10.87,0,0,0,17.57,27.07a10.82,10.82,0,0,0-1.23,5A11,11,0,0,0,26.28,43v3h-4v2h4v4h2V48h4V46h-4V43a11,11,0,0,0,9.93-10.89,10.77,10.77,0,0,0-1.23-5,10.87,10.87,0,0,0-1.34-11.87l4.69-4.68v3.25h2V7.1Z"/>
  <path class="cls-3" d="M0,27.11A27.28,27.28,0,1,0,27.28-.16,27.28,27.28,0,0,0,0,27.11"/>
</svg>
