<svg id="Layer_1" data-name="Layer 1" xmlns="http://www.w3.org/2000/svg" viewBox="0 0 60.06 54.56">
  <defs>
    <style>
      .cls-1 {
        fill: #00a8b4;
      }

      .cls-2 {
        fill: #fff;
      }

      .cls-3 {
        fill: none;
      }
    </style>
  </defs>
  <title>7 global development</title>
  <g>
    <path class="cls-1" d="M32.78,0A27.27,27.27,0,0,0,13.54,46.6l.58-.56c3.09-3.14,6.32-6.15,9.31-9.4a53.79,53.79,0,0,0,4-4.45,9.34,9.34,0,0,0,1.05-2.62c.37-1.06.74-2.12,1.14-3.17,1.45-3.86,3.47-7.44,7.53-9A21.18,21.18,0,0,1,43,16.24c1-.08,1.93-.16,2.88-.17.56,0,1.12,0,1.68,0a7.47,7.47,0,0,1,1.89,0c.38.11.25-.09.27.28a5.31,5.31,0,0,1-.59,1.34c-.38.86-.73,1.73-1.1,2.59a55.29,55.29,0,0,1-2.47,5.22A13.52,13.52,0,0,1,41.72,30,12.63,12.63,0,0,1,36.33,32c-1.58.29-3.23.34-4.83.47l-2.11.19a3.33,3.33,0,0,0-2.33,1.21c-3.44,3.31-6.71,6.79-9.91,10.33-.93,1-1.88,2.07-2.82,3.11A27.27,27.27,0,1,0,32.78,0Zm-7,28.88c-.68,1.87-1.4,3.7-2.22,5.52A6.17,6.17,0,0,1,23,35.83c-.21.12-.31-.11-.49-.3-.75-.76-1.44-1.59-2.11-2.42a16.52,16.52,0,0,1-4-11.29A26.78,26.78,0,0,1,18,15.26c.4-1.21.72-2.44,1.07-3.65a11.46,11.46,0,0,0,.58-3c3.33,2.09,6.51,6.05,7.26,10A19.51,19.51,0,0,1,25.83,28.88ZM38.45,43.19a13.36,13.36,0,0,1-6.4-2.27c-2.27-1.45-4.64-2.9-7.33-3.28A23.33,23.33,0,0,1,32,34.77a28.29,28.29,0,0,1,7.4-.76c5.13,0,9.84,2.3,13.83,5.41C48.8,41.54,43.48,43.54,38.45,43.19Z"/>
    <path class="cls-2" d="M27.06,33.91a3.33,3.33,0,0,1,2.33-1.21l2.11-.19c1.6-.13,3.25-.18,4.83-.47A12.63,12.63,0,0,0,41.72,30a13.52,13.52,0,0,0,3.85-4.49A55.29,55.29,0,0,0,48,20.28c.37-.86.72-1.73,1.1-2.59a5.31,5.31,0,0,0,.59-1.34c0-.37.11-.17-.27-.28a7.47,7.47,0,0,0-1.89,0c-.56,0-1.12,0-1.68,0-1,0-1.93.09-2.88.17a21.18,21.18,0,0,0-5.9,1.18c-4.06,1.54-6.08,5.12-7.53,9-.4,1.05-.77,2.11-1.14,3.17a9.34,9.34,0,0,1-1.05,2.62,53.79,53.79,0,0,1-4,4.45c-3,3.25-6.22,6.26-9.31,9.4l-.58.56c.26.26.52.5.79.75.94-1,1.89-2.07,2.82-3.11C20.35,40.7,23.62,37.22,27.06,33.91Z"/>
    <path class="cls-2" d="M39.43,34a28.29,28.29,0,0,0-7.4.76,23.33,23.33,0,0,0-7.31,2.87c2.69.38,5.06,1.83,7.33,3.28a13.36,13.36,0,0,0,6.4,2.27c5,.35,10.35-1.65,14.81-3.77C49.27,36.31,44.56,34.05,39.43,34Z"/>
    <path class="cls-2" d="M19.68,8.6a11.46,11.46,0,0,1-.58,3c-.35,1.21-.67,2.44-1.07,3.65a26.78,26.78,0,0,0-1.66,6.56,16.52,16.52,0,0,0,4,11.29c.67.83,1.36,1.66,2.11,2.42.18.19.28.42.49.3a6.17,6.17,0,0,0,.64-1.43c.82-1.82,1.54-3.65,2.22-5.52a19.51,19.51,0,0,0,1.11-10.33C26.19,14.65,23,10.69,19.68,8.6Z"/>
  </g>
  <path class="cls-3" d="M5.5,27.28A27.28,27.28,0,1,0,32.78,0,27.31,27.31,0,0,0,5.5,27.28"/>
</svg>
