<svg id="Layer_1" data-name="Layer 1" xmlns="http://www.w3.org/2000/svg" viewBox="0 0 54.56 54.56">
  <defs>
    <style>
      .cls-1 {
        fill: #00a8b4;
      }

      .cls-2 {
        fill: #fff;
      }

      .cls-3 {
        fill: none;
      }
    </style>
  </defs>
  <title>7 global development</title>
  <g>
    <path class="cls-1" d="M27.28,0A27.26,27.26,0,0,0,8.05,46.6L8.62,46c3.1-3.14,6.32-6.15,9.31-9.4a53.79,53.79,0,0,0,4-4.45,9.34,9.34,0,0,0,1.05-2.62c.37-1.06.74-2.12,1.14-3.17,1.45-3.86,3.47-7.44,7.53-9a21.25,21.25,0,0,1,5.9-1.18c1-.08,1.93-.16,2.89-.17.55,0,1.11,0,1.67,0a7.47,7.47,0,0,1,1.89,0c.39.11.25-.09.27.28a5.31,5.31,0,0,1-.59,1.34c-.38.86-.73,1.73-1.1,2.59a55.29,55.29,0,0,1-2.47,5.22A13.6,13.6,0,0,1,36.23,30,12.72,12.72,0,0,1,30.83,32c-1.58.29-3.23.34-4.83.47l-2.11.19a3.33,3.33,0,0,0-2.33,1.21c-3.44,3.31-6.71,6.79-9.9,10.33L8.83,47.35A27.27,27.27,0,1,0,27.28,0Zm-7,28.88c-.68,1.87-1.4,3.7-2.21,5.52a6.17,6.17,0,0,1-.64,1.43c-.22.12-.32-.11-.49-.3-.75-.76-1.45-1.59-2.12-2.42a16.57,16.57,0,0,1-4-11.29,27.23,27.23,0,0,1,1.66-6.56c.4-1.21.72-2.44,1.07-3.65a11.46,11.46,0,0,0,.58-3c3.33,2.09,6.51,6.05,7.27,10A19.51,19.51,0,0,1,20.33,28.88ZM33,43.19a13.36,13.36,0,0,1-6.4-2.27c-2.27-1.45-4.64-2.9-7.33-3.28a23.33,23.33,0,0,1,7.31-2.87,28.29,28.29,0,0,1,7.4-.76c5.13,0,9.84,2.3,13.83,5.41C43.3,41.54,38,43.54,33,43.19Z"/>
    <path class="cls-2" d="M21.56,33.91a3.33,3.33,0,0,1,2.33-1.21L26,32.51c1.6-.13,3.25-.18,4.83-.47A12.72,12.72,0,0,0,36.23,30a13.6,13.6,0,0,0,3.84-4.49,55.29,55.29,0,0,0,2.47-5.22c.37-.86.72-1.73,1.1-2.59a5.31,5.31,0,0,0,.59-1.34c0-.37.12-.17-.27-.28a7.47,7.47,0,0,0-1.89,0c-.56,0-1.12,0-1.67,0-1,0-1.94.09-2.89.17a21.25,21.25,0,0,0-5.9,1.18c-4.06,1.54-6.08,5.12-7.53,9-.4,1.05-.77,2.11-1.14,3.17a9.34,9.34,0,0,1-1.05,2.62,53.79,53.79,0,0,1-4,4.45c-3,3.25-6.21,6.26-9.31,9.4l-.57.56c.25.26.51.5.78.75l2.83-3.11C14.85,40.7,18.12,37.22,21.56,33.91Z"/>
    <path class="cls-2" d="M33.93,34a28.29,28.29,0,0,0-7.4.76,23.33,23.33,0,0,0-7.31,2.87c2.69.38,5.06,1.83,7.33,3.28A13.36,13.36,0,0,0,33,43.19c5,.35,10.35-1.65,14.81-3.77C43.77,36.31,39.06,34.05,33.93,34Z"/>
    <path class="cls-2" d="M14.18,8.6a11.46,11.46,0,0,1-.58,3c-.35,1.21-.67,2.44-1.07,3.65a27.23,27.23,0,0,0-1.66,6.56,16.57,16.57,0,0,0,4,11.29c.67.83,1.37,1.66,2.12,2.42.17.19.27.42.49.3a6.17,6.17,0,0,0,.64-1.43c.81-1.82,1.53-3.65,2.21-5.52a19.51,19.51,0,0,0,1.12-10.33C20.69,14.65,17.51,10.69,14.18,8.6Z"/>
  </g>
  <path class="cls-3" d="M0,27.28A27.28,27.28,0,1,0,27.28,0,27.31,27.31,0,0,0,0,27.28"/>
</svg>
