<svg id="Layer_1" data-name="Layer 1" xmlns="http://www.w3.org/2000/svg" viewBox="0 0 54.56 54.56">
  <defs>
    <style>
      .cls-1 {
        fill: #00a8b4;
      }

      .cls-2 {
        fill: #fff;
      }

      .cls-3 {
        fill: none;
      }
    </style>
  </defs>
  <title>3 human rights</title>
  <path class="cls-1" d="M54.56,27.28A27.28,27.28,0,1,1,27.28,0,27.29,27.29,0,0,1,54.56,27.28"/>
  <path class="cls-2" d="M10.46,33.74l5.66-13.83,5.67,13.83Zm22.31,0,5.66-13.83L44.1,33.74ZM39.1,16.27H28.28V-3.89h-2V16.27H15.45L8.3,33.74h0a7.83,7.83,0,0,0,15.66,0h0L17.61,18.27H36.94L30.6,33.74a7.83,7.83,0,0,0,15.66,0Z"/>
  <path class="cls-3" d="M0,27.28A27.28,27.28,0,1,0,27.28,0,27.28,27.28,0,0,0,0,27.28"/>
</svg>
