<svg id="Layer_1" data-name="Layer 1" xmlns="http://www.w3.org/2000/svg" viewBox="0 0 54.68 54.56">
  <defs>
    <style>
      .cls-1 {
        fill: #00a8b4;
      }
    </style>
  </defs>
  <title>8 international relations</title>
  <path class="cls-1" d="M26.34,12.58V0c-4,.71-7.47,5.59-9.57,12.57Z"/>
  <path class="cls-1" d="M14.75,26.28H26.34V14.59H16.22a52.48,52.48,0,0,0-1.47,11.69"/>
  <path class="cls-1" d="M40,12.58H50.43A27.43,27.43,0,0,0,33.58.63c2.73,2.55,5,6.72,6.46,12"/>
  <path class="cls-1" d="M37.91,12.58C35.81,5.6,32.31.72,28.35,0V12.58Z"/>
  <path class="cls-1" d="M16.22,40H26.34V28.29H14.75A52.48,52.48,0,0,0,16.22,40"/>
  <path class="cls-1" d="M26.34,54.56V42H16.77c2.1,7,5.61,11.86,9.57,12.57"/>
  <path class="cls-1" d="M40.55,40H51.6a27.11,27.11,0,0,0,3.08-11.69H41.93A55.67,55.67,0,0,1,40.55,40"/>
  <path class="cls-1" d="M40.55,14.59a55.67,55.67,0,0,1,1.38,11.69H54.68A27.11,27.11,0,0,0,51.6,14.59Z"/>
  <path class="cls-1" d="M14.64,42H4.25A27.43,27.43,0,0,0,21.11,53.94c-2.74-2.55-5-6.72-6.47-11.95"/>
  <path class="cls-1" d="M0,28.29A27.25,27.25,0,0,0,3.08,40H14.13a56.34,56.34,0,0,1-1.38-11.69Z"/>
  <path class="cls-1" d="M3.08,14.59A27.25,27.25,0,0,0,0,26.28H12.75a56.34,56.34,0,0,1,1.38-11.69Z"/>
  <path class="cls-1" d="M40,42c-1.47,5.23-3.73,9.4-6.46,11.95A27.43,27.43,0,0,0,50.43,42Z"/>
  <path class="cls-1" d="M38.46,14.59H28.35V26.28H39.94a53.05,53.05,0,0,0-1.48-11.69"/>
  <path class="cls-1" d="M14.64,12.58c1.48-5.23,3.73-9.4,6.47-11.95a27.43,27.43,0,0,0-16.86,12Z"/>
  <path class="cls-1" d="M39.93,28.29H28.35V40H38.46a52.48,52.48,0,0,0,1.47-11.69"/>
  <path class="cls-1" d="M28.35,42V54.56c4-.71,7.46-5.6,9.56-12.57Z"/>
</svg>
