<?xml version="1.0" encoding="UTF-8" standalone="no"?>
<!-- Generator: Adobe Illustrator 23.0.3, SVG Export Plug-In . SVG Version: 6.00 Build 0)  -->

<svg
   xmlns:dc="http://purl.org/dc/elements/1.1/"
   xmlns:cc="http://creativecommons.org/ns#"
   xmlns:rdf="http://www.w3.org/1999/02/22-rdf-syntax-ns#"
   xmlns:svg="http://www.w3.org/2000/svg"
   xmlns="http://www.w3.org/2000/svg"
   xmlns:sodipodi="http://sodipodi.sourceforge.net/DTD/sodipodi-0.dtd"
   xmlns:inkscape="http://www.inkscape.org/namespaces/inkscape"
   version="1.1"
   id="Layer_1"
   x="0px"
   y="0px"
   viewBox="0 0 62.700003 58.401986"
   xml:space="preserve"
   sodipodi:docname="ipu-logo.svg"
   width="62.700001"
   height="58.401985"
   inkscape:version="0.92.5 (2060ec1f9f, 2020-04-08)"><metadata
   id="metadata67"><rdf:RDF><cc:Work
       rdf:about=""><dc:format>image/svg+xml</dc:format><dc:type
         rdf:resource="http://purl.org/dc/dcmitype/StillImage" /></cc:Work></rdf:RDF></metadata><defs
   id="defs65" /><sodipodi:namedview
   pagecolor="#ffffff"
   bordercolor="#666666"
   borderopacity="1"
   objecttolerance="10"
   gridtolerance="10"
   guidetolerance="10"
   inkscape:pageopacity="0"
   inkscape:pageshadow="2"
   inkscape:window-width="1291"
   inkscape:window-height="806"
   id="namedview63"
   showgrid="false"
   inkscape:zoom="1.1177053"
   inkscape:cx="150.34999"
   inkscape:cy="29.2"
   inkscape:window-x="394"
   inkscape:window-y="186"
   inkscape:window-maximized="0"
   inkscape:current-layer="Layer_1" />
<style
   type="text/css"
   id="style2">
	.st0{fill-rule:evenodd;clip-rule:evenodd;fill:#00639B;}
	.st1{fill-rule:evenodd;clip-rule:evenodd;fill:#00B0BD;}
	.st2{fill:#00B0BD;}
</style>
<g
   id="g60"
   transform="translate(-1.3,-1.6980145)">
	<g
   id="g58">
		<g
   id="g30">
			<path
   class="st0"
   d="m 43.3,6.1 c 3.8,1.2 7.3,2.7 9.4,4.2 l -0.2,-0.6 -2.2,-2 c -0.7,-2.4 -8.1,-6.1 -12.7,-6 0.6,1.7 2.2,3.2 5.7,4.4"
   id="path4"
   inkscape:connector-curvature="0"
   style="clip-rule:evenodd;fill:#00639b;fill-rule:evenodd" />
			<path
   class="st0"
   d="m 56.4,15.8 c -2.1,-2.2 -5.7,-7.5 -9.5,-6.2 0.7,0.7 1.7,1.9 3.1,3.2 2.3,2.2 5.6,4.2 6.6,4.1 1,1.1 2,3.3 3,5.7 0,-1.5 -1,-4.2 -2.1,-6.2 0.4,-4.9 -2.6,-9.6 -7.2,-12.7 -0.4,1.7 0.8,3.9 2.8,6.8 1.3,1.8 2.4,3.7 3.3,5.3"
   id="path6"
   inkscape:connector-curvature="0"
   style="clip-rule:evenodd;fill:#00639b;fill-rule:evenodd" />
			<path
   class="st0"
   d="m 60.2,29.6 c -0.8,-3 -1.3,-9.8 -5.4,-10.6 0.3,1 0.5,2.4 1.2,4.6 1,3.2 2.9,6.7 3.9,7.2 0.3,1.5 0.1,4 -0.2,6.7 0.8,-1.3 1.3,-4.3 1.3,-6.8 2.9,-4.2 2.6,-10.1 0,-15.2 -1.2,1.4 -1.2,3.9 -0.9,7.6 0.1,2.3 0.1,4.6 0.1,6.5"
   id="path8"
   inkscape:connector-curvature="0"
   style="clip-rule:evenodd;fill:#00639b;fill-rule:evenodd" />
			<path
   class="st0"
   d="m 58.8,39.8 c -1.1,1.9 -2.4,3.9 -3.5,5.4 1.1,-2.9 4.5,-8.8 1.6,-11.8 -0.4,1 -1,2.3 -1.6,4.4 -1,3.2 -1.5,7.2 -0.9,8.1 -0.6,1.4 -2.2,3.4 -4,5.4 1.4,-0.7 3.5,-2.8 4.9,-4.8 4.8,-1.8 7.9,-6.9 8.7,-12.5 -1.9,0.5 -3.3,2.6 -5.2,5.8"
   id="path10"
   inkscape:connector-curvature="0"
   style="clip-rule:evenodd;fill:#00639b;fill-rule:evenodd" />
			<path
   class="st0"
   d="m 45.8,53.8 c -2,1 -4.9,2.4 -6.9,3.1 0,-0.1 0,-0.1 -0.1,-0.1 3,-2.1 10.1,-5.7 9.2,-10.4 -1,0.7 -2.4,1.5 -4.5,3.2 -3,2.5 -6.1,6 -6.1,7.3 -1,0.7 -3,1.4 -4.8,1.9 -1.9,-0.5 -3.9,-1.3 -4.8,-1.9 -0.1,-1.3 -3.1,-4.9 -6.1,-7.3 -2.1,-1.7 -3.5,-2.5 -4.5,-3.2 -0.9,4.8 6.2,8.3 9.2,10.4 0,0.1 0,0.1 -0.1,0.1 -1.9,-0.8 -4.8,-2.1 -6.9,-3.1 -3.9,-2 -6.6,-3 -8.7,-2.3 4.4,5 10.7,7.9 16.5,6.5 1.1,0.4 2.6,0.8 4,1.2 -0.5,0.1 -0.9,0.2 -1.3,0.3 0.2,0.3 0.2,0.3 0.4,0.6 0.6,-0.1 1.3,-0.3 2.2,-0.5 0.8,0.2 1.6,0.4 2.2,0.5 0.3,-0.2 0.2,-0.2 0.4,-0.6 -0.4,-0.1 -0.8,-0.2 -1.3,-0.3 1.4,-0.4 3,-0.8 4,-1.2 5.8,1.4 12.1,-1.6 16.5,-6.5 -1.9,-0.7 -4.7,0.3 -8.5,2.3"
   id="path12"
   inkscape:connector-curvature="0"
   style="clip-rule:evenodd;fill:#00639b;fill-rule:evenodd" />
			<path
   class="st0"
   d="m 50.5,47.5 c 0,0.6 0.5,1.1 1.1,1.1 0.6,0 1.1,-0.5 1.1,-1.1 0,-0.6 -0.5,-1.1 -1.1,-1.1 -0.6,-0.1 -1.1,0.4 -1.1,1.1"
   id="path14"
   inkscape:connector-curvature="0"
   style="clip-rule:evenodd;fill:#00639b;fill-rule:evenodd" />
			<path
   class="st0"
   d="m 61.5,33 c 0,0.6 0.5,1.1 1.1,1.1 0.6,0 1.1,-0.5 1.1,-1.1 0,-0.6 -0.5,-1.1 -1.1,-1.1 -0.6,-0.1 -1.1,0.5 -1.1,1.1"
   id="path16"
   inkscape:connector-curvature="0"
   style="clip-rule:evenodd;fill:#00639b;fill-rule:evenodd" />
			<path
   class="st0"
   d="M 12.5,10.3 C 14.6,8.8 18.1,7.3 21.9,6.1 25.4,4.9 27,3.4 27.6,1.7 23,1.6 15.6,5.3 14.9,7.7 l -2.2,2 z"
   id="path18"
   inkscape:connector-curvature="0"
   style="clip-rule:evenodd;fill:#00639b;fill-rule:evenodd" />
			<path
   class="st0"
   d="m 8.6,16.9 c 1,0.1 4.3,-1.9 6.6,-4.1 1.5,-1.4 2.4,-2.5 3.1,-3.2 -3.7,-1.3 -7.4,4.1 -9.5,6.2 0.9,-1.6 2,-3.5 3.2,-5.3 2,-2.9 3.2,-5 2.8,-6.8 -4.4,3.1 -7.5,7.8 -7.1,12.7 -1.2,2 -2.1,4.7 -2.1,6.2 1,-2.4 2,-4.6 3,-5.7"
   id="path20"
   inkscape:connector-curvature="0"
   style="clip-rule:evenodd;fill:#00639b;fill-rule:evenodd" />
			<path
   class="st0"
   d="M 5.6,37.5 C 5.2,34.8 5,32.2 5.4,30.8 6.4,30.4 8.3,26.8 9.3,23.6 10,21.5 10.2,20.1 10.5,19 6.3,19.8 5.8,26.6 5,29.6 5,27.7 5,25.4 5.2,23.1 5.5,19.4 5.5,16.9 4.3,15.5 c -2.6,5.1 -2.9,11 0,15.2 0,2.5 0.5,5.5 1.3,6.8"
   id="path22"
   inkscape:connector-curvature="0"
   style="clip-rule:evenodd;fill:#00639b;fill-rule:evenodd" />
			<path
   class="st0"
   d="m 14.9,51.4 c -1.8,-2 -3.5,-4 -4,-5.4 C 11.5,45.1 11,41.1 10,37.9 9.3,35.8 8.7,34.5 8.3,33.5 5.4,36.5 8.8,42.3 9.9,45.3 8.8,43.7 7.5,41.7 6.4,39.8 4.6,36.6 3.1,34.5 1.3,34 c 0.8,5.7 3.9,10.8 8.7,12.6 1.4,2 3.5,4.1 4.9,4.8"
   id="path24"
   inkscape:connector-curvature="0"
   style="clip-rule:evenodd;fill:#00639b;fill-rule:evenodd" />
			<path
   class="st0"
   d="m 12.5,47.5 c 0,0.6 0.5,1.1 1.1,1.1 0.6,0 1.1,-0.5 1.1,-1.1 0,-0.6 -0.5,-1.1 -1.1,-1.1 -0.6,-0.1 -1.1,0.4 -1.1,1.1"
   id="path26"
   inkscape:connector-curvature="0"
   style="clip-rule:evenodd;fill:#00639b;fill-rule:evenodd" />
			<path
   class="st0"
   d="m 2.6,34.1 c 0.6,0 1.1,-0.5 1.1,-1.1 0,-0.6 -0.5,-1.1 -1.1,-1.1 -0.6,0 -1.1,0.5 -1.1,1.1 -0.1,0.6 0.4,1.1 1.1,1.1"
   id="path28"
   inkscape:connector-curvature="0"
   style="clip-rule:evenodd;fill:#00639b;fill-rule:evenodd" />
		</g>
		<g
   id="g56">
			<path
   class="st1"
   d="m 32.6,12.6 13.2,5.2 c 0.4,0.2 0.7,0.2 1.1,0.2 0.7,-0.1 1.4,-1.5 -0.4,-1.3 L 33.6,11.4 c 0.1,-0.7 -0.5,-1.4 -1,-1.4 -0.5,0 -1.1,0.7 -1,1.4 l -12.9,5.3 c -1.8,-0.2 -1.1,1.3 -0.4,1.3 0.4,0 0.7,0 1.1,-0.2 z"
   id="path32"
   inkscape:connector-curvature="0"
   style="clip-rule:evenodd;fill:#00b0bd;fill-rule:evenodd" />
			<rect
   x="18.1"
   y="18.5"
   class="st1"
   width="28.9"
   height="1.2"
   id="rect34"
   style="clip-rule:evenodd;fill:#00b0bd;fill-rule:evenodd" />
			<path
   class="st1"
   d="m 46.5,27.3 v -5.8 c 0.2,0 0.4,-0.1 0.4,-0.3 v -1.1 h -2.3 v 1.1 c 0,0.2 0.2,0.4 0.4,0.3 v 5.8 c 0,0 1.5,0 1.5,0 z"
   id="path36"
   inkscape:connector-curvature="0"
   style="clip-rule:evenodd;fill:#00b0bd;fill-rule:evenodd" />
			<path
   class="st1"
   d="m 41.2,27.3 v -5.8 c 0.2,0 0.4,-0.1 0.4,-0.3 v -1.1 h -2.3 v 1.1 c 0,0.2 0.2,0.4 0.4,0.3 v 5.8 c 0,0 1.5,0 1.5,0 z"
   id="path38"
   inkscape:connector-curvature="0"
   style="clip-rule:evenodd;fill:#00b0bd;fill-rule:evenodd" />
			<path
   class="st1"
   d="m 36,27.3 v -5.8 c 0.2,0 0.4,-0.1 0.4,-0.3 v -1.1 h -2.3 v 1.1 c 0,0.2 0.2,0.4 0.4,0.3 v 5.8 c 0,0 1.5,0 1.5,0 z"
   id="path40"
   inkscape:connector-curvature="0"
   style="clip-rule:evenodd;fill:#00b0bd;fill-rule:evenodd" />
			<rect
   x="18.1"
   y="27.700001"
   class="st1"
   width="28.9"
   height="1.2"
   id="rect42"
   style="clip-rule:evenodd;fill:#00b0bd;fill-rule:evenodd" />
			<rect
   x="16.6"
   y="29.299999"
   class="st1"
   width="32"
   height="1.5"
   id="rect44"
   style="clip-rule:evenodd;fill:#00b0bd;fill-rule:evenodd" />
			<polygon
   class="st1"
   points="45.3,18.1 19.9,18.1 32.5,13.1 "
   id="polygon46"
   style="clip-rule:evenodd;fill:#00b0bd;fill-rule:evenodd" />
			<path
   class="st1"
   d="m 18.6,27.3 v -5.8 c -0.2,0 -0.4,-0.1 -0.4,-0.3 v -1.1 h 2.3 v 1.1 c 0,0.2 -0.2,0.4 -0.4,0.3 v 5.8 c 0,0 -1.5,0 -1.5,0 z"
   id="path48"
   inkscape:connector-curvature="0"
   style="clip-rule:evenodd;fill:#00b0bd;fill-rule:evenodd" />
			<path
   class="st1"
   d="m 23.9,27.3 v -5.8 c -0.2,0 -0.4,-0.1 -0.4,-0.3 v -1.1 h 2.3 v 1.1 c 0,0.2 -0.2,0.4 -0.4,0.3 v 5.8 c 0,0 -1.5,0 -1.5,0 z"
   id="path50"
   inkscape:connector-curvature="0"
   style="clip-rule:evenodd;fill:#00b0bd;fill-rule:evenodd" />
			<path
   class="st1"
   d="m 29.1,27.3 v -5.8 c -0.2,0 -0.4,-0.1 -0.4,-0.3 V 20.1 H 31 v 1.1 c 0,0.2 -0.2,0.4 -0.4,0.3 v 5.8 c 0,0 -1.5,0 -1.5,0 z"
   id="path52"
   inkscape:connector-curvature="0"
   style="clip-rule:evenodd;fill:#00b0bd;fill-rule:evenodd" />
			<path
   class="st2"
   d="m 22.1,41.4 h -1.4 v -7.7 h 1.4 z m 4.5,-5.8 c 0,0.2 0.1,0.4 0.2,0.5 0.1,0.1 0.3,0.2 0.5,0.2 0.2,0 0.4,-0.1 0.5,-0.2 0.1,-0.1 0.2,-0.3 0.2,-0.6 0,-0.2 -0.1,-0.4 -0.2,-0.5 -0.1,-0.1 -0.3,-0.2 -0.5,-0.2 -0.2,0 -0.4,0.1 -0.5,0.2 -0.1,0.2 -0.2,0.4 -0.2,0.6 m -0.3,3.5 c 0,0.3 0.1,0.6 0.3,0.8 0.2,0.2 0.4,0.3 0.7,0.3 0.3,0 0.6,-0.1 0.8,-0.3 0.2,-0.2 0.3,-0.5 0.3,-0.8 0,-0.3 -0.1,-0.6 -0.3,-0.8 -0.2,-0.2 -0.4,-0.3 -0.8,-0.3 -0.3,0 -0.5,0.1 -0.7,0.3 -0.3,0.2 -0.3,0.5 -0.3,0.8 m -0.3,-2 c -0.3,-0.2 -0.5,-0.4 -0.6,-0.6 -0.1,-0.3 -0.2,-0.5 -0.2,-0.9 0,-0.6 0.2,-1 0.6,-1.4 0.4,-0.4 0.9,-0.6 1.5,-0.6 0.6,0 1.1,0.2 1.6,0.6 0.4,0.4 0.6,0.9 0.6,1.4 0,0.3 -0.1,0.6 -0.2,0.9 -0.1,0.3 -0.4,0.5 -0.7,0.6 0.4,0.2 0.7,0.5 0.9,0.8 0.2,0.3 0.3,0.7 0.3,1.1 0,0.7 -0.2,1.3 -0.7,1.8 -0.5,0.5 -1.1,0.7 -1.8,0.7 -0.7,0 -1.3,-0.2 -1.8,-0.7 -0.5,-0.5 -0.7,-1.1 -0.7,-1.8 0,-0.4 0.1,-0.8 0.3,-1.1 0.2,-0.3 0.5,-0.6 0.9,-0.8 m 7.9,-1.5 c 0,0.2 0.1,0.4 0.2,0.5 0.1,0.1 0.3,0.2 0.5,0.2 0.2,0 0.4,-0.1 0.5,-0.2 0.1,-0.1 0.2,-0.3 0.2,-0.6 0,-0.2 -0.1,-0.4 -0.2,-0.5 -0.1,-0.1 -0.3,-0.2 -0.5,-0.2 -0.2,0 -0.4,0.1 -0.5,0.2 -0.2,0.2 -0.2,0.4 -0.2,0.6 m -0.4,3.5 c 0,0.3 0.1,0.6 0.3,0.8 0.2,0.2 0.4,0.3 0.7,0.3 0.3,0 0.6,-0.1 0.8,-0.3 0.2,-0.2 0.3,-0.5 0.3,-0.8 0,-0.3 -0.1,-0.6 -0.3,-0.8 -0.2,-0.2 -0.4,-0.3 -0.8,-0.3 -0.3,0 -0.5,0.1 -0.7,0.3 -0.2,0.2 -0.3,0.5 -0.3,0.8 m -0.2,-2 C 33,36.9 32.8,36.7 32.7,36.5 32.6,36.2 32.5,36 32.5,35.6 c 0,-0.6 0.2,-1 0.6,-1.4 0.4,-0.4 0.9,-0.6 1.5,-0.6 0.6,0 1.1,0.2 1.6,0.6 0.4,0.4 0.6,0.9 0.6,1.4 0,0.3 -0.1,0.6 -0.2,0.9 -0.1,0.3 -0.4,0.5 -0.7,0.6 0.4,0.2 0.7,0.5 0.9,0.8 0.2,0.3 0.3,0.7 0.3,1.1 0,0.7 -0.2,1.3 -0.7,1.8 -0.5,0.5 -1.1,0.7 -1.8,0.7 -0.7,0 -1.3,-0.2 -1.8,-0.7 -0.5,-0.5 -0.7,-1.1 -0.7,-1.8 0,-0.4 0.1,-0.8 0.3,-1.1 0.1,-0.3 0.4,-0.6 0.9,-0.8 m 9.8,-0.8 c 0,-0.4 -0.1,-0.7 -0.4,-1 -0.2,-0.3 -0.5,-0.4 -0.9,-0.4 -0.4,0 -0.6,0.1 -0.9,0.4 -0.2,0.2 -0.3,0.6 -0.3,1 0,0.4 0.1,0.7 0.3,1 0.2,0.3 0.5,0.4 0.9,0.4 0.3,0 0.6,-0.1 0.9,-0.4 0.2,-0.3 0.4,-0.6 0.4,-1 m -1.3,5.1 H 40.3 L 42,38.8 c -0.1,0 -0.2,0 -0.3,0.1 -0.1,0 -0.2,0 -0.2,0 -0.6,0 -1.1,-0.2 -1.6,-0.8 -0.4,-0.5 -0.6,-1.1 -0.6,-1.8 0,-0.3 0.1,-0.6 0.2,-0.9 0.1,-0.3 0.3,-0.6 0.5,-0.8 0.3,-0.3 0.6,-0.6 0.9,-0.7 0.3,-0.2 0.7,-0.2 1.1,-0.2 0.4,0 0.7,0.1 1,0.2 0.3,0.1 0.6,0.3 0.8,0.6 0.2,0.2 0.4,0.5 0.6,0.8 0.1,0.3 0.2,0.6 0.2,1 0,0.4 -0.1,0.8 -0.2,1.1 -0.1,0.4 -0.4,0.9 -0.8,1.5 z"
   id="path54"
   inkscape:connector-curvature="0"
   style="fill:#00b0bd" />
		</g>
	</g>

</g>
</svg>