<svg id="Layer_1" data-name="Layer 1" xmlns="http://www.w3.org/2000/svg" viewBox="0 0 54.56 54.56">
  <defs>
    <style>
      .cls-1 {
        fill: #00a8b4;
      }

      .cls-2 {
        fill: #fff;
      }

      .cls-3 {
        fill: none;
      }
    </style>
  </defs>
  <title>5 parliamentary dialogue</title>
  <path class="cls-1" d="M27.28,54.56A27.28,27.28,0,1,1,54.56,27.28,27.31,27.31,0,0,1,27.28,54.56"/>
  <path class="cls-2" d="M46.44,21.63c0-5.51-6-10-13.36-10a17.05,17.05,0,0,0-2.29.15c-.25,0-.48.09-.73.13-.48.09-1,.17-1.43.3-.28.07-.53.17-.8.25s-.82.26-1.2.42-.52.24-.78.36-.7.35-1,.54-.47.3-.7.46-.61.42-.89.65a7.7,7.7,0,0,0-.6.54c-.26.24-.5.49-.73.74s-.33.4-.48.61a7.66,7.66,0,0,0-.56.84c-.12.21-.24.43-.35.65s-.09.23-.14.35l.34,0c7.52,0,13.64,4.69,13.64,10.44a8.13,8.13,0,0,1-.41,2.5h0c.48,0,1-.07,1.42-.12s1-.14,1.46-.24l10.39,7-4.48-9.68a8.84,8.84,0,0,0,3.71-6.89m-25.73-2c-.25,0-.49,0-.73,0h0a7.68,7.68,0,0,0-.26,2c0,5.46,5.88,9.88,13.16,10a7.29,7.29,0,0,0,.48-2.54c0-5.21-5.66-9.44-12.64-9.44m-2,2a8.43,8.43,0,0,1,.23-1.89h-.07a18,18,0,0,0-2,.35l-.26.06a14.74,14.74,0,0,0-1.81.59l-.26.1a14.2,14.2,0,0,0-1.61.8l-.24.14a13.07,13.07,0,0,0-1.4,1l-.19.17A9.76,9.76,0,0,0,10,24.12l-.14.17A8.77,8.77,0,0,0,9,25.63c0,.05,0,.11-.08.16a8,8,0,0,0-.57,1.5s0,.07,0,.1a7.13,7.13,0,0,0-.2,1.67,7,7,0,0,0,.54,2.72,9.26,9.26,0,0,0,3,3.79L10,39.27,8.44,43l8.73-4.86a16.34,16.34,0,0,0,3.54.38h.05a16.22,16.22,0,0,0,2-.13c.23,0,.44-.07.66-.11.43-.07.87-.14,1.28-.25.25-.06.48-.14.72-.21s.74-.22,1.09-.36.46-.2.69-.3.65-.3,1-.47l.63-.37c.29-.19.58-.38.85-.58l.54-.43c.25-.22.49-.44.72-.68s.3-.31.44-.47.41-.52.6-.79.22-.33.32-.5.09-.18.14-.26c-7.6-.28-13.68-5.08-13.68-10.95"/>
  <path class="cls-3" d="M0,27.28A27.28,27.28,0,1,0,27.28,0,27.31,27.31,0,0,0,0,27.28"/>
</svg>
