<svg id="Layer_1" data-name="Layer 1" xmlns="http://www.w3.org/2000/svg" viewBox="0 0 54.56 54.56">
  <defs>
    <style>
      .cls-1 {
        fill: #00a8b4;
      }

      .cls-2 {
        fill: #fff;
      }

      .cls-3 {
        fill: none;
      }
    </style>
  </defs>
  <title>4 peace building</title>
  <path class="cls-1" d="M27.28,54.56A27.28,27.28,0,1,1,54.56,27.28,27.31,27.31,0,0,1,27.28,54.56"/>
  <path class="cls-2" d="M18.26,33.92S13,31,12.45,30.56A13.14,13.14,0,0,1,9,25.41C7.69,21.71,7.93,17,10.42,13.85c1.7-2.19,1.68-.56,2.93,1.06a30.46,30.46,0,0,0,4,4.37c.69.6,4.75,4.35,7.22,5.36,0,0-4.75-5-6.89-7.32-1.74-1.89-2.26-2.61-1.08-5,.66-1.38,2-3.39,3.57-3.8,1.3,5.58,3.51,10.85,8.14,14.45,1.83-2.61,4.78-5,8-5.58A4.93,4.93,0,0,1,41.27,19c1.4,1.57,1.24,3.13,1.86,5l3.16-2.2c-.65-.74-1.85-3.62,0-4s1.1,3,.71,3.8c.55,0,5.06-2.48,4.79-.27-.14,1.16-2.56.88-3.17.82-.24,0-.52-.41-.78-.38s-.25.32-.46.3c.71.23,3.88,2.36,2.16,3.35S46.73,23,46.49,22.18a5.73,5.73,0,0,0-1.42.86c.91.7,2.78,1.55,2,3.17-1,2-2.78-1.42-2.81-2.66-2,2.1-2.65,4.14-3.3,6.92a10.93,10.93,0,0,1,1.87-6c-3.41,0-4.7.93-5.59,4.28-.7,2.61-1.2,5.25-2.94,7.41-3,3.67-7.85,4.46-12.18,4.86-2.61.24-4.89,0-7,1.84-.54.46-1.12,1.82-1.74,1.91-.81.13-2.57-1.49-3.09-2a11.34,11.34,0,0,1-3.45-6.38c-.27-1.65-.82-5.14.55-6.44,1.29,2.42,10.23,8.24,10.92,4"/>
  <path class="cls-3" d="M0,27.28A27.28,27.28,0,1,0,27.28,0,27.31,27.31,0,0,0,0,27.28"/>
</svg>
