<?xml version="1.0" encoding="UTF-8" standalone="no"?>
<!-- Svg Vector Icons : http://www.onlinewebfonts.com/icon -->

<svg
   xmlns:dc="http://purl.org/dc/elements/1.1/"
   xmlns:cc="http://creativecommons.org/ns#"
   xmlns:rdf="http://www.w3.org/1999/02/22-rdf-syntax-ns#"
   xmlns:svg="http://www.w3.org/2000/svg"
   xmlns="http://www.w3.org/2000/svg"
   xmlns:sodipodi="http://sodipodi.sourceforge.net/DTD/sodipodi-0.dtd"
   xmlns:inkscape="http://www.inkscape.org/namespaces/inkscape"
   version="1.1"
   x="0px"
   y="0px"
   viewBox="0 0 1000 1000"
   enable-background="new 0 0 1000 1000"
   xml:space="preserve"
   id="svg8"
   sodipodi:docname="report-next.svg"
   inkscape:version="0.92.5 (2060ec1f9f, 2020-04-08)"><defs
   id="defs12" /><sodipodi:namedview
   pagecolor="#ffffff"
   bordercolor="#666666"
   borderopacity="1"
   objecttolerance="10"
   gridtolerance="10"
   guidetolerance="10"
   inkscape:pageopacity="0"
   inkscape:pageshadow="2"
   inkscape:window-width="1920"
   inkscape:window-height="1013"
   id="namedview10"
   showgrid="false"
   inkscape:zoom="0.472"
   inkscape:cx="151.48305"
   inkscape:cy="500"
   inkscape:window-x="-9"
   inkscape:window-y="-9"
   inkscape:window-maximized="1"
   inkscape:current-layer="svg8" />
<metadata
   id="metadata2"> Svg Vector Icons : http://www.onlinewebfonts.com/icon <rdf:RDF><cc:Work
     rdf:about=""><dc:format>image/svg+xml</dc:format><dc:type
       rdf:resource="http://purl.org/dc/dcmitype/StillImage" /></cc:Work></rdf:RDF></metadata>

<path
   style="stroke-width:2.118644;fill:#00838c;fill-opacity:0"
   d="M 467.16102,988.13057 C 462.5,987.64907 450.58263,986.28087 440.67797,985.09013 319.91345,970.5718 203.05657,907.38981 126.60736,815.2789 65.216508,741.31127 30.249171,661.7904 14.522453,560.38136 c -3.40134,-21.93253 -3.40134,-98.83019 0,-120.76272 5.72808,-36.93582 11.76494,-62.83349 21.730051,-93.22033 C 63.968385,261.88367 117.86494,182.09591 184.72111,126.60736 266.29494,58.903601 360.48142,20.740607 466.52127,12.426032 617.86072,0.55951965 776.19131,67.60671 873.39265,184.72111 c 61.47777,74.07236 96.33591,153.34489 112.08489,254.89753 3.40134,21.93253 3.40134,98.83019 0,120.76272 -9.27231,59.78974 -24.04269,108.5701 -46.89201,154.86453 -72.1486,146.17845 -207.41034,244.2165 -371.01936,268.91578 -21.54299,3.25225 -83.5977,5.70519 -100.40515,3.9689 z M 538.44078,927.9461 C 708.94883,911.32591 852.03947,798.82214 906.60449,638.48059 937.10583,548.85114 937.10968,451.24023 906.61508,361.51941 857.8439,218.02282 735.81059,110.16907 587.38212,79.379167 465.99553,54.198809 342.05502,82.168277 240.0022,157.77188 c -18.20648,13.48788 -54.41376,48.35228 -71.51618,68.86376 -31.16939,37.38243 -58.87528,87.14279 -75.101452,134.88377 -42.403617,124.7608 -25.115994,263.15315 46.543092,372.59076 79.1973,120.94991 211.59736,193.70153 356.14024,195.69305 11.23776,0.15487 30.30555,-0.68087 42.37288,-1.85712 z"
   id="path14"
   inkscape:connector-curvature="0" /><path
   style="fill:#00838c;fill-opacity:1;stroke-width:2.118644"
   d="M 456.99153,987.26405 C 330.82172,974.09057 224.46862,921.27019 139.41427,829.53894 83.1704,768.87985 40.876667,688.00405 22.848706,606.63752 7.0872254,535.5004 8.140108,450.999 25.651053,381.72905 66.808373,218.9185 187.34901,89.039856 346.56532,35.954301 c 51.6172,-17.210095 95.6797,-24.116726 153.85841,-24.116726 47.34441,0 74.03805,3.14437 117.58474,13.850864 146.87642,36.111387 272.02962,142.570591 331.20164,281.730371 46.78781,110.03486 52.20799,232.18206 15.2675,344.06424 -25.0571,75.89078 -63.00897,137.38581 -119.66244,193.89415 -43.10625,42.99581 -80.12799,69.25147 -134.64568,95.49011 -45.98661,22.13277 -89.15074,35.34233 -140.88983,43.11665 -27.09883,4.07189 -87.73911,5.84326 -112.28813,3.28009 z m 80.81366,-59.33752 C 691.34733,912.82307 820.85746,823.15415 887.03216,686.13227 989.36701,474.23689 900.21511,216.83601 688.98305,114.32152 541.32305,42.659627 369.10428,59.684173 238.87905,158.81619 163.00173,216.57668 106.74395,302.2253 83.162224,395.88443 c -16.393072,65.10807 -16.393072,143.12307 0,208.23114 23.581726,93.65913 79.839506,179.30776 155.716826,237.06824 85.90377,65.39297 194.78114,96.98712 298.92614,86.74272 z"
   id="path4524"
   inkscape:connector-curvature="0" /><path
   style="fill:#0066a1;fill-opacity:1;stroke-width:2.118644"
   d="m 416.65436,779.67246 c -12.99786,-7.92489 -18.15562,-21.82098 -13.12473,-35.36081 1.22163,-3.28781 52.31506,-56.11027 113.85996,-117.713 L 629.03349,514.84983 516.37733,402.02237 c -99.1114,-99.2621 -112.82892,-113.781 -114.09314,-120.75844 -1.96988,-10.87214 0.0731,-17.44135 8.17272,-26.27957 8.32295,-9.08192 22.14268,-11.82616 32.34878,-6.42363 3.39755,1.79847 61.23562,58.41224 128.52905,125.80837 l 122.3517,122.53842 v 17.92299 17.92299 l -122.3517,122.53843 c -67.29343,67.39612 -124.92617,123.90371 -128.07275,125.57239 -7.98986,4.23716 -18.47353,3.76757 -26.60763,-1.19186 z"
   id="path4528"
   inkscape:connector-curvature="0" /><path
   style="fill:#00a8b4;fill-opacity:1;stroke-width:2.118644"
   d="M 436.86441,983.95354 C 322.12678,966.35758 229.76869,919.93239 151.41961,840.4704 78.563174,766.57905 29.005189,665.05318 16.472304,564.01356 12.498139,531.97398 11.524172,491.18042 14.040325,462.15263 19.97177,393.72403 33.528364,344.42773 62.842282,284.69246 131.50386,144.77532 263.23597,46.199671 418.19326,18.781916 c 23.36708,-4.13451 34.666,-4.814672 81.17115,-4.886272 58.14625,-0.08952 70.22358,1.157533 113.95637,11.766672 65.87077,15.979591 126.06424,44.410641 180.52399,85.266524 24.51866,18.39398 65.5682,57.81766 84.14101,80.80845 58.41083,72.30519 94.96532,158.74818 106.61447,252.11864 3.07687,24.66185 3.08628,87.85676 0.017,112.28814 -16.96792,135.05193 -85.96076,254.24299 -194.2161,335.52506 -67.6576,50.79964 -157.40733,85.68023 -240.18924,93.3478 -32.9244,3.04957 -90.02091,2.51392 -113.34745,-1.06339 z M 568.22034,924.8667 c 89.81305,-16.23477 165.48237,-53.84166 228.65364,-113.63854 65.61697,-62.11193 109.83477,-145.07672 127.49365,-239.21329 4.52451,-24.11936 6.3657,-94.92265 3.11411,-119.75286 C 907.9515,303.12324 824.50015,182.66826 695.33898,117.18357 635.93731,87.066928 580.25667,72.820061 513.13559,70.563635 416.67042,67.320746 320.01775,97.367726 243.73833,154.31274 c -22.70992,16.95367 -60.08954,52.84564 -77.58874,74.50082 -48.10088,59.52464 -80.658796,133.69093 -91.900357,209.34722 -4.492104,30.2321 -4.492104,93.44634 0,123.67844 11.241561,75.65629 43.799477,149.82258 91.900357,209.34722 16.75478,20.73396 54.53799,57.23924 75.2584,72.71292 57.88222,43.2256 129.45248,72.55136 202.87167,83.12621 26.61015,3.83278 97.63848,2.59555 123.94068,-2.15887 z"
   id="path4530"
   inkscape:connector-curvature="0" /></svg>