<svg id="Layer_1" data-name="Layer 1" xmlns="http://www.w3.org/2000/svg" viewBox="0 0 54.56 54.56">
  <defs>
    <style>
      .cls-1 {
        fill: #00a8b4;
      }

      .cls-2 {
        fill: #fff;
      }

      .cls-3 {
        fill: none;
      }
    </style>
  </defs>
  <title>1 strong parliaments</title>
  <path class="cls-1" d="M27.28,54.56A27.28,27.28,0,1,1,54.56,27.28,27.31,27.31,0,0,1,27.28,54.56"/>
  <path class="cls-2" d="M10.76,19.62h33l-16-8.6a1,1,0,0,0-.94,0Zm31.91,14H38.11V21.68h4.56Zm-6.56,0H31.56V21.68h4.55Zm-6.55,0H25V21.68h4.56Zm-6.56,0H18.44V21.68H23Zm-6.56,0H11.89V21.68h4.55Zm31.3.5a.5.5,0,0,0-.5-.5H44.67V20.68h0s0,0,0-.06H9.91s0,0,0,.06h0V33.59H7.32a.5.5,0,0,0,0,1H47.24a.5.5,0,0,0,.5-.5m2,2.34a.5.5,0,0,0-.5-.5H5.32a.5.5,0,0,0,0,1H49.24a.5.5,0,0,0,.5-.5"/>
  <path class="cls-3" d="M0,27.28A27.28,27.28,0,1,0,27.28,0,27.31,27.31,0,0,0,0,27.28"/>
</svg>
