<svg id="Layer_1" data-name="Layer 1" xmlns="http://www.w3.org/2000/svg" viewBox="0 0 54.56 54.56">
  <defs>
    <style>
      .cls-1 {
        fill: #00a8b4;
      }

      .cls-2 {
        fill: #fff;
      }

      .cls-3 {
        fill: none;
      }
    </style>
  </defs>
  <title>6 youth</title>
  <path class="cls-1" d="M54.56,27.28A27.28,27.28,0,1,1,27.28,0,27.29,27.29,0,0,1,54.56,27.28"/>
  <path class="cls-2" d="M33.19,13.37a5.92,5.92,0,1,0-5.91,5.92,5.9,5.9,0,0,0,5.91-5.92m11.29,2.81H36.72L27.28,32.36,18,16.18H9.17L23,40V55.47h7.59V40Z"/>
  <path class="cls-3" d="M0,27.28A27.28,27.28,0,1,0,27.28,0,27.28,27.28,0,0,0,0,27.28"/>
</svg>
