<svg id="Layer_1" data-name="Layer 1" xmlns="http://www.w3.org/2000/svg" viewBox="0 0 93.8 77.03"><defs><style>.cls-1{font-size:8.62px;}.cls-1,.cls-4,.cls-5{fill:#fff;}.cls-1,.cls-5{font-family:Roboto-Light, Roboto;}.cls-2{letter-spacing:-0.01em;}.cls-3{letter-spacing:0em;}.cls-5{font-size:4.86px;}.cls-6{letter-spacing:-0.01em;}</style></defs><title>IPU_Crest_FR</title><text class="cls-1" transform="translate(0 65.56)">Union Interparlementai<tspan class="cls-2" x="86.5" y="0">r</tspan><tspan class="cls-3" x="89.37" y="0">e</tspan></text><path class="cls-4" d="M52.51,42.51A1.73,1.73,0,0,1,51.73,41a1.93,1.93,0,0,1,.59-1.44,2.15,2.15,0,0,1,2.94,0A1.92,1.92,0,0,1,55.84,41a1.8,1.8,0,0,1-.77,1.49,1.64,1.64,0,0,1,.67.66,2.2,2.2,0,0,1-.37,2.52,2.15,2.15,0,0,1-1.57.6,2.25,2.25,0,0,1-1.61-.6,2,2,0,0,1-.64-1.52A1.7,1.7,0,0,1,52.51,42.51Zm.09,1.63a1.17,1.17,0,0,0,.34.84,1.17,1.17,0,0,0,1.65,0,1.14,1.14,0,0,0,.35-.83,1.13,1.13,0,0,0-.35-.83,1.09,1.09,0,0,0-.82-.34,1.13,1.13,0,0,0-.83.34A1.11,1.11,0,0,0,52.6,44.14ZM52.73,41a1,1,0,0,0,.31.76,1.05,1.05,0,0,0,1.49,0,1.05,1.05,0,0,0,0-1.49,1,1,0,0,0-.74-.31,1,1,0,0,0-.75.31A1,1,0,0,0,52.73,41Z" transform="translate(-11.94 -9.27)"/><path class="cls-4" d="M59.47,42.51A1.73,1.73,0,0,1,58.69,41a1.93,1.93,0,0,1,.59-1.44A2.07,2.07,0,0,1,60.76,39a2,2,0,0,1,1.46.58A1.92,1.92,0,0,1,62.8,41,1.8,1.8,0,0,1,62,42.51a1.64,1.64,0,0,1,.67.66,2.2,2.2,0,0,1-.37,2.52,2.15,2.15,0,0,1-1.57.6,2.25,2.25,0,0,1-1.61-.6,2,2,0,0,1-.64-1.52A1.7,1.7,0,0,1,59.47,42.51Zm.09,1.63a1.17,1.17,0,0,0,.34.84,1.17,1.17,0,0,0,1.65,0,1.14,1.14,0,0,0,.35-.83,1.13,1.13,0,0,0-.35-.83,1.09,1.09,0,0,0-.82-.34,1.13,1.13,0,0,0-.83.34A1.11,1.11,0,0,0,59.56,44.14ZM59.69,41a1,1,0,0,0,.31.76,1.05,1.05,0,0,0,1.49,0,1.05,1.05,0,0,0,0-1.49,1,1,0,0,0-.74-.31,1,1,0,0,0-.75.31A1,1,0,0,0,59.69,41Z" transform="translate(-11.94 -9.27)"/><path class="cls-4" d="M69.31,39.73A2.52,2.52,0,0,0,67.53,39,2.51,2.51,0,0,0,65,41.5a2.27,2.27,0,0,0,.66,1.65,2.09,2.09,0,0,0,1.57.69h.16l.25,0L65.91,46.2H67.2l2.12-2.89a3.27,3.27,0,0,0,.74-1.88A2.32,2.32,0,0,0,69.31,39.73Zm-.76,2.71a1.39,1.39,0,0,1-1,.41,1.36,1.36,0,0,1-1-.42,1.38,1.38,0,0,1-.41-1,1.41,1.41,0,1,1,2.41,1Z" transform="translate(-11.94 -9.27)"/><path class="cls-4" d="M40.65,16.88c2.68-1.15,5.38-2.28,8-3.5a34,34,0,0,0,4.05-2.14A7.29,7.29,0,0,0,54.15,9.6L54,9.27a17.9,17.9,0,0,0-3.22.55,42,42,0,0,0-5.83,2.55,14,14,0,0,0-2.62,2.45c-.75.71-1.52,1.4-2.28,2.1.44-.79.92-1.58,1.33-2.39a5.17,5.17,0,0,0,.79-3.23,16,16,0,0,0-4.84,4.85,11,11,0,0,0-1.84,6.29,3.17,3.17,0,0,1-.3,1.18C34.6,25.09,34,26.56,33.4,28l.27.11c.47-1,.92-2,1.43-2.94a3.34,3.34,0,0,1,2-1.92c2.41-.78,6.62-4.36,8.05-6.59a2.35,2.35,0,0,0-2.29.13,30.42,30.42,0,0,0-3.62,2.67c-.86.75-1.56,1.69-2.41,2.49a24.42,24.42,0,0,1,3.2-5.08A1.71,1.71,0,0,0,40.65,16.88Zm-1.11,36a4.45,4.45,0,0,1-1-3.15c.14-3.67-1-7.08-2.53-10.5a4.23,4.23,0,0,0-.87,4c.46,1.79,1.15,3.53,1.74,5.28.12.36.28.69.42,1l-.22.12c-.91-1.43-1.8-2.87-2.72-4.29s-1.76-2.82-2.76-4.14a10.8,10.8,0,0,0-1.84-1.57l-.26.18c.14.67.24,1.35.43,2,1.17,4.16,3.27,7.6,7.43,9.43A2.4,2.4,0,0,1,38,52l3.33,3.62.23-.21C40.89,54.58,40.21,53.74,39.54,52.9ZM35.73,27.07c-1.3,1.54-1.71,3.47-2.16,5.38-.19.82-.35,1.64-.53,2.46l-.3,0c.1-1.87.25-3.74.29-5.62s0-3.6-.1-5.39a5.66,5.66,0,0,0-.61-1.56,16,16,0,0,0-1.78,5.27A13.12,13.12,0,0,0,32,36.31c.48.86.3,2.08.47,3.12a16.09,16.09,0,0,0,.76,2.88c-.09-1.33-.2-2.65-.27-4A3.19,3.19,0,0,1,33.79,36a20.42,20.42,0,0,0,3.43-7.45c.26-.9.44-1.82.65-2.73l-.28-.24A11.2,11.2,0,0,0,35.73,27.07Zm-5.15,12.6a.86.86,0,0,0,1-.92c0-.64-.27-1-.92-1.06s-1,.35-1.16,1.18C29.83,39.15,30.18,39.61,30.58,39.67ZM42,52.29c0-.64-.44-1.06-1-.92a1.5,1.5,0,0,0-.94.93c-.11.57.34,1,.92,1S42,52.92,42,52.29Z" transform="translate(-11.94 -9.27)"/><path class="cls-4" d="M41.57,55.41c-.68-.83-1.36-1.67-2-2.51a4.45,4.45,0,0,1-1-3.15c.14-3.67-1-7.08-2.53-10.5a4.23,4.23,0,0,0-.87,4c.46,1.79,1.15,3.53,1.74,5.28.12.36.28.69.42,1l-.22.12c-.91-1.43-1.8-2.87-2.72-4.29s-1.76-2.82-2.76-4.14a10.8,10.8,0,0,0-1.84-1.57l-.26.18c.14.67.24,1.35.43,2,1.17,4.16,3.27,7.6,7.43,9.43A2.4,2.4,0,0,1,38,52l3.33,3.62Z" transform="translate(-11.94 -9.27)"/><path class="cls-4" d="M37.59,25.59a11.2,11.2,0,0,0-1.86,1.48c-1.3,1.54-1.71,3.47-2.16,5.38-.19.82-.35,1.64-.53,2.46l-.3,0c.1-1.87.25-3.74.29-5.62s0-3.6-.1-5.39a5.66,5.66,0,0,0-.61-1.56,16,16,0,0,0-1.78,5.27A13.12,13.12,0,0,0,32,36.31c.48.86.3,2.08.47,3.12a16.09,16.09,0,0,0,.76,2.88c-.09-1.33-.2-2.65-.27-4A3.19,3.19,0,0,1,33.79,36a20.42,20.42,0,0,0,3.43-7.45c.26-.9.44-1.82.65-2.73Z" transform="translate(-11.94 -9.27)"/><path class="cls-4" d="M40,16.92c.45-.79.93-1.58,1.34-2.39a5.17,5.17,0,0,0,.79-3.23,16,16,0,0,0-4.84,4.85,11,11,0,0,0-1.84,6.29,3.17,3.17,0,0,1-.3,1.18C34.6,25.09,34,26.56,33.4,28l.27.11c.47-1,.92-2,1.43-2.94a3.34,3.34,0,0,1,2-1.92c2.41-.78,6.62-4.36,8.05-6.59a2.35,2.35,0,0,0-2.29.13,30.42,30.42,0,0,0-3.62,2.67c-.86.75-1.56,1.69-2.41,2.49a24.42,24.42,0,0,1,3.2-5.08Z" transform="translate(-11.94 -9.27)"/><path class="cls-4" d="M40.05,16.9a1.71,1.71,0,0,0,.6,0c2.68-1.15,5.38-2.28,8-3.5a34,34,0,0,0,4.05-2.14A7.29,7.29,0,0,0,54.15,9.6L54,9.27a17.9,17.9,0,0,0-3.22.55,42,42,0,0,0-5.83,2.55,14,14,0,0,0-2.62,2.45c-.75.71-1.52,1.4-2.29,2.1Z" transform="translate(-11.94 -9.27)"/><path class="cls-4" d="M29.46,38.87c.37.28.72.74,1.12.8a.86.86,0,0,0,1-.92c0-.64-.27-1-.92-1.06S29.66,38,29.46,38.87Z" transform="translate(-11.94 -9.27)"/><path class="cls-4" d="M41,53.29c.69,0,1.06-.37,1.05-1s-.44-1.06-1-.92a1.5,1.5,0,0,0-.94.93C39.94,52.87,40.39,53.25,41,53.29Z" transform="translate(-11.94 -9.27)"/><path class="cls-4" d="M43.69,57c2.41,1.08,4.77,2.25,7.16,3.37.66.31,1.33.57,2,.85L53,61l-.84-.6a43.28,43.28,0,0,1-3.95-2.73,24.38,24.38,0,0,1-3.23-3.5,3.21,3.21,0,0,1-.45-2.78c.77.53,1.41,1,2,1.4C49.34,54.8,52,57,53.77,60a4.67,4.67,0,0,0,2.77,2.23l1.32.45h0l.13,0,.4.13.23,0c1.43.41,2.32.7,2.55.77V64c-.16-.05-2.27-.48-4-.84S54,62,52.3,62.39a6.3,6.3,0,0,1-1.94.08c-4.46-.35-8-2.47-11.18-5.51-.24-.24-.43-.52-.71-.85A8,8,0,0,1,43.69,57Z" transform="translate(-11.94 -9.27)"/><path class="cls-4" d="M77.75,16.9A24.37,24.37,0,0,1,80.94,22c-.85-.8-1.55-1.74-2.41-2.49a29.63,29.63,0,0,0-3.62-2.67,2.35,2.35,0,0,0-2.29-.13c1.43,2.23,5.64,5.81,8,6.59a3.36,3.36,0,0,1,2,1.92c.5,1,1,2,1.43,2.94l.26-.11c-.59-1.47-1.2-2.94-1.78-4.41a3.17,3.17,0,0,1-.3-1.18,11,11,0,0,0-1.84-6.29,16,16,0,0,0-4.84-4.85,5.17,5.17,0,0,0,.79,3.23c.42.81.89,1.6,1.33,2.39-.76-.7-1.53-1.39-2.28-2.1a14.29,14.29,0,0,0-2.61-2.45A42.65,42.65,0,0,0,67,9.82a17.75,17.75,0,0,0-3.22-.55l-.16.33a7.29,7.29,0,0,0,1.41,1.64,34,34,0,0,0,4,2.14c2.66,1.22,5.36,2.35,8.05,3.5A1.7,1.7,0,0,0,77.75,16.9ZM76.22,55.41l.24.21Q78.11,53.8,79.78,52c.22-.24.41-.55.68-.67,4.16-1.83,6.26-5.27,7.44-9.43.18-.66.28-1.34.42-2l-.25-.18a10.88,10.88,0,0,0-1.85,1.57c-1,1.32-1.85,2.75-2.75,4.14s-1.82,2.86-2.73,4.29l-.22-.12c.14-.35.3-.68.42-1,.6-1.75,1.28-3.49,1.75-5.28a4.26,4.26,0,0,0-.88-4c-1.51,3.42-2.66,6.83-2.53,10.5a4.4,4.4,0,0,1-1,3.15C77.58,53.74,76.9,54.58,76.22,55.41Zm4-29.82-.28.24c.22.91.39,1.83.65,2.73A20.28,20.28,0,0,0,84,36a3.22,3.22,0,0,1,.8,2.32c-.07,1.33-.17,2.65-.27,4a16.09,16.09,0,0,0,.76-2.88c.18-1,0-2.26.47-3.12a13.12,13.12,0,0,0,1.48-8.75,15.74,15.74,0,0,0-1.78-5.27,6.39,6.39,0,0,0-.61,1.56c-.09,1.79-.13,3.6-.1,5.39s.19,3.75.29,5.62l-.3,0c-.17-.82-.34-1.64-.53-2.46a12,12,0,0,0-2.16-5.38A10.8,10.8,0,0,0,80.2,25.59Zm8.14,13.28c-.21-.83-.52-1.21-1.17-1.18s-.93.42-.92,1.06a.86.86,0,0,0,1,.92C87.61,39.61,88,39.15,88.34,38.87ZM76.82,53.29c.58,0,1-.42.92-1a1.5,1.5,0,0,0-.94-.93c-.59-.14-1,.28-1,.92S76.14,53.25,76.82,53.29Z" transform="translate(-11.94 -9.27)"/><path class="cls-4" d="M76.22,55.41c.68-.83,1.36-1.67,2-2.51a4.4,4.4,0,0,0,1-3.15c-.13-3.67,1-7.08,2.53-10.5a4.26,4.26,0,0,1,.88,4c-.47,1.79-1.15,3.53-1.75,5.28-.12.36-.28.69-.42,1l.22.12c.91-1.43,1.81-2.87,2.73-4.29s1.76-2.82,2.75-4.14a10.88,10.88,0,0,1,1.85-1.57l.25.18c-.14.67-.24,1.35-.42,2-1.18,4.16-3.28,7.6-7.44,9.43-.27.12-.46.43-.68.67q-1.66,1.8-3.32,3.62Z" transform="translate(-11.94 -9.27)"/><path class="cls-4" d="M80.2,25.59a10.8,10.8,0,0,1,1.86,1.48,12,12,0,0,1,2.16,5.38c.19.82.36,1.64.53,2.46l.3,0c-.1-1.87-.25-3.74-.29-5.62s0-3.6.1-5.39a6.39,6.39,0,0,1,.61-1.56,15.74,15.74,0,0,1,1.78,5.27,13.12,13.12,0,0,1-1.48,8.75c-.48.86-.29,2.08-.47,3.12a16.09,16.09,0,0,1-.76,2.88c.1-1.33.2-2.65.27-4A3.22,3.22,0,0,0,84,36a20.28,20.28,0,0,1-3.44-7.45c-.26-.9-.43-1.82-.65-2.73Z" transform="translate(-11.94 -9.27)"/><path class="cls-4" d="M77.76,16.92c-.45-.79-.92-1.58-1.34-2.39a5.17,5.17,0,0,1-.79-3.23,16,16,0,0,1,4.84,4.85,11,11,0,0,1,1.84,6.29,3.17,3.17,0,0,0,.3,1.18c.58,1.47,1.19,2.94,1.78,4.41l-.26.11c-.48-1-.93-2-1.43-2.94a3.36,3.36,0,0,0-2-1.92c-2.41-.78-6.62-4.36-8-6.59a2.35,2.35,0,0,1,2.29.13,29.63,29.63,0,0,1,3.62,2.67c.86.75,1.56,1.69,2.41,2.49a24.37,24.37,0,0,0-3.19-5.08Z" transform="translate(-11.94 -9.27)"/><path class="cls-4" d="M77.75,16.9a1.7,1.7,0,0,1-.6,0c-2.69-1.15-5.39-2.28-8.05-3.5a34,34,0,0,1-4-2.14A7.29,7.29,0,0,1,63.64,9.6l.16-.33A17.75,17.75,0,0,1,67,9.82a42.65,42.65,0,0,1,5.84,2.55,14.29,14.29,0,0,1,2.61,2.45c.75.71,1.52,1.4,2.29,2.1Z" transform="translate(-11.94 -9.27)"/><path class="cls-4" d="M88.34,38.87c-.38.28-.73.74-1.13.8a.86.86,0,0,1-1-.92c0-.64.27-1,.92-1.06S88.13,38,88.34,38.87Z" transform="translate(-11.94 -9.27)"/><path class="cls-4" d="M76.82,53.29c-.68,0-1.06-.37-1-1s.44-1.06,1-.92a1.5,1.5,0,0,1,.94.93C77.85,52.87,77.4,53.25,76.82,53.29Z" transform="translate(-11.94 -9.27)"/><path class="cls-4" d="M74.11,57c-2.41,1.08-4.78,2.25-7.17,3.37-.65.31-1.33.57-2,.85l-.11-.2.84-.6a43.28,43.28,0,0,0,4-2.73,24.38,24.38,0,0,0,3.23-3.5,3.18,3.18,0,0,0,.45-2.78c-.76.53-1.41,1-2,1.4C68.45,54.8,65.76,57,64,60a4.67,4.67,0,0,1-2.77,2.23l-1.32.45h0l-.13,0-.4.13-.23,0c-1.43.41-2.31.7-2.55.77V64c.16-.05,2.27-.48,4-.84s3.16-1.18,4.87-.78a6.35,6.35,0,0,0,2,.08c4.45-.35,8-2.47,11.17-5.51.24-.24.43-.52.72-.85A8,8,0,0,0,74.11,57Z" transform="translate(-11.94 -9.27)"/><rect class="cls-4" x="35.65" y="29.75" width="1.32" height="7.19"/><rect class="cls-4" x="31.84" y="25.64" width="30.07" height="1.16"/><rect class="cls-4" x="33.23" y="24.06" width="27.25" height="1.12"/><rect class="cls-4" x="33.23" y="15.38" width="27.25" height="1.12"/><polygon class="cls-4" points="35.43 16.84 33.2 16.84 33.2 18.17 33.65 18.28 33.65 23.72 34.98 23.72 34.98 18.28 35.43 18.17 35.43 16.84"/><polygon class="cls-4" points="40.49 16.84 38.26 16.84 38.26 18.17 38.71 18.28 38.71 23.72 40.04 23.72 40.04 18.28 40.49 18.17 40.49 16.84"/><polygon class="cls-4" points="45.43 16.84 43.2 16.84 43.2 18.17 43.65 18.28 43.65 23.72 44.98 23.72 44.98 18.28 45.43 18.17 45.43 16.84"/><polygon class="cls-4" points="50.61 16.84 48.38 16.84 48.38 18.17 48.83 18.28 48.83 23.72 50.16 23.72 50.16 18.28 50.61 18.17 50.61 16.84"/><polygon class="cls-4" points="55.55 16.84 53.31 16.84 53.31 18.17 53.77 18.28 53.77 23.72 55.09 23.72 55.09 18.28 55.55 18.17 55.55 16.84"/><polygon class="cls-4" points="60.48 16.84 58.24 16.84 58.24 18.17 58.7 18.28 58.7 23.72 60.02 23.72 60.02 18.28 60.48 18.17 60.48 16.84"/><polygon class="cls-4" points="35.15 14.83 58.51 14.83 46.87 10.22 35.15 14.83"/><rect class="cls-4" x="45.96" y="7.31" width="1.86" height="2.47" rx="0.93" ry="0.93"/><path class="cls-4" d="M46.34,24.07a.64.64,0,0,0,.19-.08L58.9,19l-.51-1.25L45.8,22.83h-.47a.62.62,0,0,0-.62.62v0a.61.61,0,0,0,.62.61h.94Z" transform="translate(-11.94 -9.27)"/><path class="cls-4" d="M71.22,24.07A.64.64,0,0,1,71,24L58.66,19l.51-1.25,12.59,5.1h.47a.62.62,0,0,1,.62.62v0a.61.61,0,0,1-.62.61h-.94Z" transform="translate(-11.94 -9.27)"/><text class="cls-5" transform="translate(15.23 75.71)"><tspan class="cls-6">P</tspan><tspan x="2.97" y="0">our la démocratie. </tspan><tspan class="cls-6" x="42.62" y="0">P</tspan><tspan x="45.58" y="0">our tous</tspan></text></svg>