<svg id="Layer_1" data-name="Layer 1" xmlns="http://www.w3.org/2000/svg" viewBox="0 0 97 77"><defs><style>.cls-1{fill:#fff;}</style></defs><title>ipu-crest-logo-white</title><path class="cls-1" d="M.77,65.69H.27V59.56h.5Z"/><path class="cls-1" d="M2.8,61.13l0,.79a1.68,1.68,0,0,1,.6-.64,1.56,1.56,0,0,1,.88-.23,1.38,1.38,0,0,1,1.12.45,2.12,2.12,0,0,1,.39,1.41v2.78h-.5V62.92A1.64,1.64,0,0,0,5,61.81a1,1,0,0,0-.83-.32,1.35,1.35,0,0,0-.87.26,1.53,1.53,0,0,0-.47.71v3.23H2.35V61.13Z"/><path class="cls-1" d="M7.94,60v1.16h1v.42h-1v3a1,1,0,0,0,.16.64.55.55,0,0,0,.43.18h.18l.2,0,.08.37a1.23,1.23,0,0,1-.25.08,1.53,1.53,0,0,1-.3,0,1,1,0,0,1-.75-.3,1.47,1.47,0,0,1-.26-1v-3H6.64v-.42h.79V60Z"/><path class="cls-1" d="M11.65,65.77a1.8,1.8,0,0,1-1.43-.62,2.33,2.33,0,0,1-.55-1.61v-.23a2.37,2.37,0,0,1,.55-1.62,1.78,1.78,0,0,1,1.39-.64,1.6,1.6,0,0,1,1.28.53A2.15,2.15,0,0,1,13.34,63v.39H10.17v.14a2.11,2.11,0,0,0,.39,1.3,1.32,1.32,0,0,0,1.09.51,2.11,2.11,0,0,0,.77-.14,1.56,1.56,0,0,0,.58-.37l.21.35a1.83,1.83,0,0,1-.63.42A2.32,2.32,0,0,1,11.65,65.77Zm0-4.29a1.25,1.25,0,0,0-1,.41A1.86,1.86,0,0,0,10.21,63l0,0h2.61v-.11a1.56,1.56,0,0,0-.32-1A1.11,1.11,0,0,0,11.61,61.48Z"/><path class="cls-1" d="M16.44,61.57l-.36,0a1.12,1.12,0,0,0-.78.27,1.53,1.53,0,0,0-.44.73v3.15h-.5V61.13h.44l.06.76v0a1.76,1.76,0,0,1,.53-.66,1.42,1.42,0,0,1,.8-.23h.17l.14,0Z"/><path class="cls-1" d="M19.67,63.29H17.18v-.43h2.49Z"/><path class="cls-1" d="M21.54,63.14v2.55H21V59.56h2.11a2.09,2.09,0,0,1,1.49.49,1.86,1.86,0,0,1,0,2.6,2.09,2.09,0,0,1-1.49.49Zm0-.43h1.61a1.58,1.58,0,0,0,1.14-.38,1.47,1.47,0,0,0,0-1.95A1.54,1.54,0,0,0,23.15,60H21.54Z"/><path class="cls-1" d="M29.07,65.69c0-.16-.05-.3-.07-.42s0-.23,0-.35a1.85,1.85,0,0,1-.66.61,2,2,0,0,1-1,.24,1.44,1.44,0,0,1-1-.35,1.31,1.31,0,0,1-.36-1,1.17,1.17,0,0,1,.53-1,2.38,2.38,0,0,1,1.39-.37H29v-.57a1,1,0,0,0-.31-.76,1.25,1.25,0,0,0-.87-.28,1.29,1.29,0,0,0-.84.25.79.79,0,0,0-.32.64h-.46v0a1.07,1.07,0,0,1,.44-.9,2.08,2.08,0,0,1,2.41,0,1.34,1.34,0,0,1,.46,1.1v2.24a3.71,3.71,0,0,0,0,.47,1.8,1.8,0,0,0,.09.45Zm-1.67-.36a1.75,1.75,0,0,0,1-.28,1.33,1.33,0,0,0,.58-.71v-.87H27.85a1.64,1.64,0,0,0-1,.3.83.83,0,0,0-.4.7.79.79,0,0,0,.25.62A1,1,0,0,0,27.4,65.33Z"/><path class="cls-1" d="M32.9,61.57l-.36,0a1.16,1.16,0,0,0-.78.27,1.44,1.44,0,0,0-.43.73v3.15h-.51V61.13h.44l.07.76v0a1.67,1.67,0,0,1,.53-.66,1.36,1.36,0,0,1,.79-.23h.17a.39.39,0,0,1,.14,0Z"/><path class="cls-1" d="M34.33,65.69h-.5V59.12h.5Z"/><path class="cls-1" d="M36.28,59.83h-.5v-.71h.5Zm0,5.86h-.5V61.13h.5Z"/><path class="cls-1" d="M40.56,65.69c0-.16-.06-.3-.07-.42a2,2,0,0,1,0-.35,1.85,1.85,0,0,1-.66.61,2,2,0,0,1-1,.24,1.43,1.43,0,0,1-1-.35,1.31,1.31,0,0,1-.37-1,1.18,1.18,0,0,1,.54-1,2.36,2.36,0,0,1,1.39-.37h1.12v-.57a1,1,0,0,0-.31-.76,1.26,1.26,0,0,0-.88-.28,1.28,1.28,0,0,0-.83.25.79.79,0,0,0-.32.64h-.47v0a1.08,1.08,0,0,1,.45-.9,1.8,1.8,0,0,1,1.21-.39,1.82,1.82,0,0,1,1.2.38,1.34,1.34,0,0,1,.46,1.1v2.24c0,.16,0,.31,0,.47a3.58,3.58,0,0,0,.09.45Zm-1.68-.36a1.76,1.76,0,0,0,1-.28,1.43,1.43,0,0,0,.58-.71v-.87H39.34a1.64,1.64,0,0,0-1,.3.83.83,0,0,0-.4.7.79.79,0,0,0,.25.62A1,1,0,0,0,38.88,65.33Z"/><path class="cls-1" d="M42.74,61.13l0,.75a1.55,1.55,0,0,1,.58-.61,1.6,1.6,0,0,1,.86-.22,1.42,1.42,0,0,1,.87.25,1.35,1.35,0,0,1,.5.76,1.82,1.82,0,0,1,.59-.74,1.56,1.56,0,0,1,.92-.27,1.39,1.39,0,0,1,1.13.48,2.36,2.36,0,0,1,.4,1.5v2.66h-.51V63a1.83,1.83,0,0,0-.3-1.19,1,1,0,0,0-.82-.34,1.13,1.13,0,0,0-.9.35,1.7,1.7,0,0,0-.4.9s0,.07,0,.1v2.85h-.51V63a1.84,1.84,0,0,0-.3-1.18,1,1,0,0,0-.83-.35,1.3,1.3,0,0,0-.84.26,1.39,1.39,0,0,0-.44.73v3.21h-.51V61.13Z"/><path class="cls-1" d="M51.68,65.77a1.82,1.82,0,0,1-1.44-.62,2.33,2.33,0,0,1-.55-1.61v-.23a2.38,2.38,0,0,1,.56-1.62,1.74,1.74,0,0,1,1.38-.64,1.6,1.6,0,0,1,1.28.53A2.15,2.15,0,0,1,53.36,63v.39H50.2v.14a2.11,2.11,0,0,0,.39,1.3,1.29,1.29,0,0,0,1.09.51,2.1,2.1,0,0,0,.76-.14,1.49,1.49,0,0,0,.58-.37l.22.35a1.83,1.83,0,0,1-.63.42A2.38,2.38,0,0,1,51.68,65.77Zm0-4.29a1.23,1.23,0,0,0-1,.41A1.79,1.79,0,0,0,50.24,63v0h2.61v-.11a1.56,1.56,0,0,0-.32-1A1.1,1.1,0,0,0,51.63,61.48Z"/><path class="cls-1" d="M54.83,61.13l.05.79a1.58,1.58,0,0,1,1.47-.87,1.42,1.42,0,0,1,1.13.45,2.18,2.18,0,0,1,.38,1.41v2.78h-.5V62.92a1.7,1.7,0,0,0-.29-1.11,1.07,1.07,0,0,0-.84-.32,1.32,1.32,0,0,0-.86.26,1.55,1.55,0,0,0-.48.71v3.23h-.51V61.13Z"/><path class="cls-1" d="M60,60v1.16h1v.42H60v3a1,1,0,0,0,.16.64.55.55,0,0,0,.43.18h.18l.2,0,.08.37a1.23,1.23,0,0,1-.25.08,1.53,1.53,0,0,1-.3,0,.92.92,0,0,1-.74-.3,1.41,1.41,0,0,1-.27-1v-3h-.79v-.42h.79V60Z"/><path class="cls-1" d="M64.84,65.69c0-.16-.06-.3-.07-.42a2,2,0,0,1,0-.35,1.7,1.7,0,0,1-.66.61,1.94,1.94,0,0,1-1,.24,1.41,1.41,0,0,1-1-.35,1.27,1.27,0,0,1-.37-1,1.18,1.18,0,0,1,.54-1,2.32,2.32,0,0,1,1.38-.37h1.12v-.57a1,1,0,0,0-.31-.76,1.21,1.21,0,0,0-.87-.28,1.28,1.28,0,0,0-.83.25.76.76,0,0,0-.32.64h-.47v0a1.09,1.09,0,0,1,.44-.9,1.84,1.84,0,0,1,1.22-.39,1.82,1.82,0,0,1,1.2.38,1.37,1.37,0,0,1,.45,1.1v2.24a3.71,3.71,0,0,0,0,.47,3.58,3.58,0,0,0,.09.45Zm-1.68-.36a1.78,1.78,0,0,0,1-.28,1.36,1.36,0,0,0,.57-.71v-.87H63.62a1.62,1.62,0,0,0-1,.3.83.83,0,0,0-.4.7.79.79,0,0,0,.25.62A1,1,0,0,0,63.16,65.33Z"/><path class="cls-1" d="M68.67,61.57l-.36,0a1.12,1.12,0,0,0-.78.27,1.45,1.45,0,0,0-.44.73v3.15h-.5V61.13H67l.06.76v0a1.67,1.67,0,0,1,.53-.66,1.39,1.39,0,0,1,.79-.23h.18l.14,0Z"/><path class="cls-1" d="M70.9,64.45l.16.55h0l1.38-3.87H73l-2,5.28a2.63,2.63,0,0,1-.45.79,1,1,0,0,1-.83.32h-.21l-.19,0,.06-.42h.32a.64.64,0,0,0,.53-.23,2.1,2.1,0,0,0,.34-.6l.24-.61-1.76-4.5h.56Z"/><path class="cls-1" d="M80.34,59.56v4.07a2.06,2.06,0,0,1-.62,1.58,2.24,2.24,0,0,1-1.59.56,2.21,2.21,0,0,1-1.57-.57,2.06,2.06,0,0,1-.6-1.57V59.56h.5v4.07a1.68,1.68,0,0,0,.47,1.25,1.63,1.63,0,0,0,1.2.47,1.73,1.73,0,0,0,1.23-.46,1.67,1.67,0,0,0,.48-1.26V59.56Z"/><path class="cls-1" d="M82.15,61.13l0,.79a1.68,1.68,0,0,1,.6-.64,1.55,1.55,0,0,1,.87-.23,1.4,1.4,0,0,1,1.13.45,2.12,2.12,0,0,1,.39,1.41v2.78h-.5V62.92a1.64,1.64,0,0,0-.3-1.11,1,1,0,0,0-.83-.32,1.33,1.33,0,0,0-.87.26,1.55,1.55,0,0,0-.48.71v3.23h-.5V61.13Z"/><path class="cls-1" d="M87.06,59.83h-.5v-.71h.5Zm0,5.86h-.5V61.13h.5Z"/><path class="cls-1" d="M88.17,63.34a2.44,2.44,0,0,1,.55-1.65,2,2,0,0,1,2.93,0,2.44,2.44,0,0,1,.55,1.65v.14a2.44,2.44,0,0,1-.55,1.65,1.82,1.82,0,0,1-1.46.64,1.84,1.84,0,0,1-1.47-.64,2.44,2.44,0,0,1-.55-1.65Zm.51.14a2.14,2.14,0,0,0,.4,1.33,1.29,1.29,0,0,0,1.11.54,1.31,1.31,0,0,0,1.11-.54,2.21,2.21,0,0,0,.4-1.33v-.14A2.14,2.14,0,0,0,91.29,62a1.31,1.31,0,0,0-1.11-.54,1.28,1.28,0,0,0-1.1.54,2.13,2.13,0,0,0-.4,1.32Z"/><path class="cls-1" d="M93.7,61.13l0,.79a1.68,1.68,0,0,1,.6-.64,1.56,1.56,0,0,1,.88-.23,1.38,1.38,0,0,1,1.12.45,2.12,2.12,0,0,1,.39,1.41v2.78h-.5V62.92a1.64,1.64,0,0,0-.3-1.11,1,1,0,0,0-.83-.32,1.33,1.33,0,0,0-.87.26,1.46,1.46,0,0,0-.47.71v3.23h-.51V61.13Z"/><path class="cls-1" d="M40.75,33.37A1.72,1.72,0,0,1,40,31.88a2,2,0,0,1,.59-1.44A2.06,2.06,0,0,1,42,29.87a2,2,0,0,1,1.46.57,1.92,1.92,0,0,1,.58,1.44,1.77,1.77,0,0,1-.77,1.49A1.64,1.64,0,0,1,44,34a2.07,2.07,0,0,1,.24,1,2,2,0,0,1-.61,1.54,2.13,2.13,0,0,1-1.56.59,2.27,2.27,0,0,1-1.62-.6A2,2,0,0,1,39.79,35,1.7,1.7,0,0,1,40.75,33.37ZM40.84,35a1.17,1.17,0,0,0,.34.84,1.13,1.13,0,0,0,.83.35,1.14,1.14,0,0,0,.83-.35,1.18,1.18,0,0,0,0-1.66,1.18,1.18,0,0,0-1.66,0A1.11,1.11,0,0,0,40.84,35ZM41,31.87a1,1,0,0,0,.31.76,1.06,1.06,0,0,0,1.8-.74,1,1,0,0,0-.31-.75,1,1,0,0,0-.74-.31,1,1,0,0,0-.75.31A1,1,0,0,0,41,31.87Z"/><path class="cls-1" d="M47.71,33.37a1.72,1.72,0,0,1-.78-1.49,2,2,0,0,1,.59-1.44A2.06,2.06,0,0,1,49,29.87a2,2,0,0,1,1.46.57A1.92,1.92,0,0,1,51,31.88a1.77,1.77,0,0,1-.77,1.49,1.64,1.64,0,0,1,.67.66,2.08,2.08,0,0,1,.25,1,2.06,2.06,0,0,1-.62,1.54,2.13,2.13,0,0,1-1.56.59,2.27,2.27,0,0,1-1.62-.6A2,2,0,0,1,46.75,35,1.7,1.7,0,0,1,47.71,33.37ZM47.8,35a1.17,1.17,0,0,0,.34.84,1.13,1.13,0,0,0,.83.35,1.14,1.14,0,0,0,.83-.35,1.18,1.18,0,0,0,0-1.66,1.18,1.18,0,0,0-1.66,0A1.11,1.11,0,0,0,47.8,35Zm.13-3.13a1,1,0,0,0,.31.76,1.06,1.06,0,0,0,1.8-.74,1,1,0,0,0-.31-.75,1,1,0,0,0-.74-.31,1,1,0,0,0-.75.31A1,1,0,0,0,47.93,31.87Z"/><path class="cls-1" d="M57.55,30.59a2.5,2.5,0,0,0-1.77-.72,2.49,2.49,0,0,0-2.5,2.49A2.27,2.27,0,0,0,53.94,34a2.09,2.09,0,0,0,1.57.69h.16l.25,0-1.77,2.39h1.29l2.12-2.88a3.32,3.32,0,0,0,.74-1.89A2.29,2.29,0,0,0,57.55,30.59Zm-.76,2.71a1.39,1.39,0,0,1-1,.41,1.36,1.36,0,0,1-1-.42,1.38,1.38,0,0,1-.41-1,1.4,1.4,0,0,1,.41-1,1.45,1.45,0,0,1,2,0,1.43,1.43,0,0,1,.41,1A1.39,1.39,0,0,1,56.79,33.3Z"/><path class="cls-1" d="M28.89,7.74c2.68-1.15,5.38-2.28,8-3.49A35.6,35.6,0,0,0,41,2.1,7.29,7.29,0,0,0,42.39.46L42.23.13A17.07,17.07,0,0,0,39,.69a40.79,40.79,0,0,0-5.83,2.54,14,14,0,0,0-2.62,2.45c-.75.71-1.52,1.4-2.28,2.1.44-.79.92-1.58,1.33-2.39a5.15,5.15,0,0,0,.79-3.23A16,16,0,0,0,25.57,7a10.91,10.91,0,0,0-1.85,6.29,3.17,3.17,0,0,1-.3,1.18c-.58,1.47-1.18,2.94-1.78,4.41l.27.11c.47-1,.92-2,1.43-2.94a3.34,3.34,0,0,1,2-1.92c2.42-.78,6.62-4.36,8-6.59a2.35,2.35,0,0,0-2.29.13,30.31,30.31,0,0,0-3.61,2.67C26.64,11.1,26,12,25.1,12.84a24,24,0,0,1,3.19-5.08A1.5,1.5,0,0,0,28.89,7.74Zm-1.11,36a4.45,4.45,0,0,1-1-3.15c.14-3.66-1-7.08-2.53-10.5a4.23,4.23,0,0,0-.87,4c.46,1.79,1.15,3.53,1.74,5.28.12.36.28.69.42,1l-.22.12c-.9-1.43-1.8-2.87-2.72-4.29s-1.76-2.81-2.76-4.14A11.27,11.27,0,0,0,18,30.57l-.26.18c.14.67.24,1.35.43,2,1.17,4.16,3.27,7.6,7.43,9.43a2.57,2.57,0,0,1,.69.67c1.11,1.2,2.21,2.42,3.32,3.62l.23-.21C29.14,45.44,28.45,44.6,27.78,43.76ZM24,17.93c-1.3,1.54-1.71,3.48-2.16,5.38-.19.82-.35,1.64-.53,2.46l-.3-.05c.1-1.87.25-3.74.29-5.61s0-3.6-.1-5.4a5.66,5.66,0,0,0-.61-1.56,16,16,0,0,0-1.78,5.27,13.22,13.22,0,0,0,1.48,8.76c.48.86.3,2.07.48,3.11a15.06,15.06,0,0,0,.75,2.88c-.09-1.33-.2-2.65-.27-4A3.19,3.19,0,0,1,22,26.87a20.45,20.45,0,0,0,3.44-7.45c.25-.9.43-1.82.64-2.73l-.28-.24A12.86,12.86,0,0,0,24,17.93Zm-5.14,12.6a.86.86,0,0,0,1-.92.89.89,0,0,0-.92-1.06c-.64,0-1,.35-1.16,1.18C18.07,30,18.42,30.47,18.83,30.53ZM30.26,43.15c0-.64-.44-1.06-1-.92a1.5,1.5,0,0,0-.94.93c-.11.57.34,1,.92,1S30.28,43.78,30.26,43.15Z"/><path class="cls-1" d="M29.81,46.27c-.67-.83-1.36-1.67-2-2.51a4.45,4.45,0,0,1-1-3.15c.14-3.66-1-7.08-2.53-10.5a4.23,4.23,0,0,0-.87,4c.46,1.79,1.15,3.53,1.74,5.28.12.36.28.69.42,1l-.22.12c-.9-1.43-1.8-2.87-2.72-4.29s-1.76-2.81-2.76-4.14A11.27,11.27,0,0,0,18,30.57l-.26.18c.14.67.24,1.35.43,2,1.17,4.16,3.27,7.6,7.43,9.43a2.57,2.57,0,0,1,.69.67c1.11,1.2,2.21,2.42,3.32,3.62Z"/><path class="cls-1" d="M25.83,16.45A12.86,12.86,0,0,0,24,17.93c-1.3,1.54-1.71,3.48-2.16,5.38-.19.82-.35,1.64-.53,2.46l-.3-.05c.1-1.87.25-3.74.29-5.61s0-3.6-.1-5.4a5.66,5.66,0,0,0-.61-1.56,16,16,0,0,0-1.78,5.27,13.22,13.22,0,0,0,1.48,8.76c.48.86.3,2.07.48,3.11a15.06,15.06,0,0,0,.75,2.88c-.09-1.33-.2-2.65-.27-4A3.19,3.19,0,0,1,22,26.87a20.45,20.45,0,0,0,3.44-7.45c.25-.9.43-1.82.64-2.73Z"/><path class="cls-1" d="M28.27,7.78c.45-.79.93-1.58,1.34-2.39a5.15,5.15,0,0,0,.79-3.23A16,16,0,0,0,25.57,7a10.91,10.91,0,0,0-1.85,6.29,3.17,3.17,0,0,1-.3,1.18c-.58,1.47-1.18,2.94-1.78,4.41l.27.11c.47-1,.92-2,1.43-2.94a3.34,3.34,0,0,1,2-1.92c2.42-.78,6.62-4.36,8-6.59a2.35,2.35,0,0,0-2.29.13,30.31,30.31,0,0,0-3.61,2.67C26.64,11.1,26,12,25.1,12.84a24,24,0,0,1,3.19-5.08Z"/><path class="cls-1" d="M28.29,7.76a1.5,1.5,0,0,0,.6,0c2.68-1.15,5.38-2.28,8-3.49A35.6,35.6,0,0,0,41,2.1,7.29,7.29,0,0,0,42.39.46L42.23.13A17.07,17.07,0,0,0,39,.69a40.79,40.79,0,0,0-5.83,2.54,14,14,0,0,0-2.62,2.45c-.75.71-1.52,1.4-2.28,2.1Z"/><path class="cls-1" d="M17.7,29.73c.37.28.72.74,1.13.8a.86.86,0,0,0,1-.92.89.89,0,0,0-.92-1.06C18.22,28.52,17.9,28.9,17.7,29.73Z"/><path class="cls-1" d="M29.21,44.16c.69,0,1.07-.38,1.05-1s-.44-1.06-1-.92a1.5,1.5,0,0,0-.94.93C28.18,43.73,28.63,44.11,29.21,44.16Z"/><path class="cls-1" d="M31.93,47.84c2.41,1.08,4.77,2.25,7.16,3.37.66.31,1.33.57,2,.86l.11-.21c-.28-.2-.55-.4-.84-.59a45.48,45.48,0,0,1-4-2.74A24.84,24.84,0,0,1,33.18,45a3.22,3.22,0,0,1-.45-2.78c.77.52,1.41.94,2,1.39,2.82,2,5.51,4.22,7.25,7.24a4.69,4.69,0,0,0,2.77,2.23l1.32.46h0l.13,0,.4.13.24,0c1.42.41,2.31.7,2.54.77v.3c-.16,0-2.27-.48-4-.84s-3.16-1.18-4.87-.78a6.3,6.3,0,0,1-1.94.08c-4.46-.35-8-2.47-11.18-5.51-.24-.24-.43-.52-.71-.85A8,8,0,0,1,31.93,47.84Z"/><path class="cls-1" d="M66,7.76a24.37,24.37,0,0,1,3.19,5.08c-.85-.8-1.55-1.74-2.41-2.49a29.63,29.63,0,0,0-3.62-2.67,2.35,2.35,0,0,0-2.29-.13c1.43,2.23,5.64,5.81,8,6.59a3.36,3.36,0,0,1,2,1.92c.5,1,1,2,1.43,2.94l.26-.11c-.59-1.47-1.2-2.94-1.78-4.41a3.17,3.17,0,0,1-.3-1.18A11,11,0,0,0,68.71,7a16,16,0,0,0-4.84-4.85,5.15,5.15,0,0,0,.79,3.23c.42.81.89,1.6,1.34,2.39-.77-.7-1.54-1.39-2.29-2.1A14.29,14.29,0,0,0,61.1,3.23,40.91,40.91,0,0,0,55.26.69,16.93,16.93,0,0,0,52,.13l-.16.33A7.56,7.56,0,0,0,53.29,2.1a35.74,35.74,0,0,0,4.06,2.15c2.66,1.21,5.35,2.34,8,3.49A1.5,1.5,0,0,0,66,7.76ZM64.46,46.27l.24.21c1.1-1.2,2.21-2.42,3.32-3.62.22-.24.41-.55.68-.67,4.16-1.83,6.26-5.27,7.44-9.43.18-.66.28-1.34.42-2l-.25-.18a11.35,11.35,0,0,0-1.85,1.57c-1,1.33-1.85,2.75-2.75,4.14S69.89,39.14,69,40.57l-.22-.12c.14-.35.3-.68.42-1,.6-1.75,1.28-3.49,1.75-5.28a4.26,4.26,0,0,0-.88-4c-1.51,3.42-2.66,6.84-2.52,10.5a4.46,4.46,0,0,1-1,3.15C65.82,44.6,65.14,45.44,64.46,46.27Zm4-29.82-.28.24c.22.91.4,1.83.65,2.73a20.28,20.28,0,0,0,3.44,7.45,3.23,3.23,0,0,1,.81,2.32c-.07,1.33-.18,2.65-.27,4a16.7,16.7,0,0,0,.75-2.88c.18-1,0-2.25.47-3.11a13.16,13.16,0,0,0,1.48-8.76,15.81,15.81,0,0,0-1.78-5.27,5.92,5.92,0,0,0-.6,1.56c-.09,1.8-.14,3.6-.1,5.4s.18,3.74.28,5.61l-.3.05c-.17-.82-.34-1.64-.53-2.46a12.08,12.08,0,0,0-2.16-5.38A11.86,11.86,0,0,0,68.44,16.45Zm8.14,13.28c-.21-.83-.52-1.21-1.17-1.18s-.93.42-.92,1.06a.86.86,0,0,0,1,.92C75.85,30.47,76.2,30,76.58,29.73ZM65.06,44.16c.58,0,1-.43.92-1a1.48,1.48,0,0,0-.94-.93c-.59-.14-1,.28-1,.92S64.38,44.11,65.06,44.16Z"/><path class="cls-1" d="M64.46,46.27c.68-.83,1.36-1.67,2-2.51a4.46,4.46,0,0,0,1-3.15c-.14-3.66,1-7.08,2.52-10.5a4.26,4.26,0,0,1,.88,4c-.47,1.79-1.15,3.53-1.75,5.28-.12.36-.28.69-.42,1l.22.12c.91-1.43,1.81-2.87,2.73-4.29s1.76-2.81,2.75-4.14a11.35,11.35,0,0,1,1.85-1.57l.25.18c-.14.67-.24,1.35-.42,2-1.18,4.16-3.28,7.6-7.44,9.43-.27.12-.46.43-.68.67-1.11,1.2-2.22,2.42-3.32,3.62Z"/><path class="cls-1" d="M68.44,16.45a11.86,11.86,0,0,1,1.86,1.48,12.08,12.08,0,0,1,2.16,5.38c.19.82.36,1.64.53,2.46l.3-.05C73.19,23.85,73,22,73,20.11s0-3.6.1-5.4a5.92,5.92,0,0,1,.6-1.56,15.81,15.81,0,0,1,1.78,5.27A13.16,13.16,0,0,1,74,27.18c-.48.86-.29,2.07-.47,3.11a16.7,16.7,0,0,1-.75,2.88c.09-1.33.2-2.65.27-4a3.23,3.23,0,0,0-.81-2.32,20.28,20.28,0,0,1-3.44-7.45c-.25-.9-.43-1.82-.65-2.73Z"/><path class="cls-1" d="M66,7.78c-.45-.79-.92-1.58-1.34-2.39a5.15,5.15,0,0,1-.79-3.23A16,16,0,0,1,68.71,7a11,11,0,0,1,1.84,6.29,3.17,3.17,0,0,0,.3,1.18c.58,1.47,1.19,2.94,1.78,4.41l-.26.11c-.48-1-.93-2-1.43-2.94a3.36,3.36,0,0,0-2-1.92c-2.41-.78-6.62-4.36-8-6.59a2.35,2.35,0,0,1,2.29.13,29.63,29.63,0,0,1,3.62,2.67c.86.75,1.56,1.69,2.41,2.49A24.37,24.37,0,0,0,66,7.76Z"/><path class="cls-1" d="M66,7.76a1.5,1.5,0,0,1-.6,0c-2.69-1.15-5.38-2.28-8-3.49A35.74,35.74,0,0,1,53.29,2.1,7.56,7.56,0,0,1,51.88.46L52,.13a16.93,16.93,0,0,1,3.22.56A40.91,40.91,0,0,1,61.1,3.23a14.29,14.29,0,0,1,2.61,2.45c.75.71,1.52,1.4,2.29,2.1Z"/><path class="cls-1" d="M76.58,29.73c-.38.28-.73.74-1.13.8a.86.86,0,0,1-1-.92c0-.64.28-1,.92-1.06S76.37,28.9,76.58,29.73Z"/><path class="cls-1" d="M65.06,44.16c-.68,0-1.06-.38-1-1s.44-1.06,1-.92a1.48,1.48,0,0,1,.94.93C66.1,43.73,65.64,44.11,65.06,44.16Z"/><path class="cls-1" d="M62.35,47.84c-2.41,1.08-4.78,2.25-7.17,3.37-.65.31-1.33.57-2,.86l-.1-.21.83-.59a42.61,42.61,0,0,0,4-2.74A24.84,24.84,0,0,0,61.09,45a3.19,3.19,0,0,0,.45-2.78c-.76.52-1.4.94-2,1.39-2.82,2-5.51,4.22-7.25,7.24a4.67,4.67,0,0,1-2.77,2.23l-1.32.46h0l-.12,0-.41.13-.23,0c-1.43.41-2.31.7-2.55.77v.3c.16,0,2.27-.48,4-.84s3.17-1.18,4.87-.78a6.35,6.35,0,0,0,2,.08c4.46-.35,8-2.47,11.17-5.51.24-.24.44-.52.72-.85A8,8,0,0,0,62.35,47.84Z"/><rect class="cls-1" x="35.84" y="29.87" width="1.32" height="7.19"/><rect class="cls-1" x="32.02" y="25.77" width="30.07" height="1.16"/><rect class="cls-1" x="33.41" y="24.18" width="27.25" height="1.12"/><rect class="cls-1" x="33.41" y="15.51" width="27.25" height="1.12"/><polygon class="cls-1" points="35.61 16.97 33.38 16.97 33.38 18.3 33.83 18.41 33.83 23.84 35.16 23.84 35.16 18.41 35.61 18.3 35.61 16.97"/><polygon class="cls-1" points="40.67 16.97 38.44 16.97 38.44 18.3 38.89 18.41 38.89 23.84 40.22 23.84 40.22 18.41 40.67 18.3 40.67 16.97"/><polygon class="cls-1" points="45.61 16.97 43.38 16.97 43.38 18.3 43.83 18.41 43.83 23.84 45.16 23.84 45.16 18.41 45.61 18.3 45.61 16.97"/><polygon class="cls-1" points="50.8 16.97 48.56 16.97 48.56 18.3 49.01 18.41 49.01 23.84 50.34 23.84 50.34 18.41 50.8 18.3 50.8 16.97"/><polygon class="cls-1" points="55.73 16.97 53.49 16.97 53.49 18.3 53.95 18.41 53.95 23.84 55.27 23.84 55.27 18.41 55.73 18.3 55.73 16.97"/><polygon class="cls-1" points="60.66 16.97 58.43 16.97 58.43 18.3 58.88 18.41 58.88 23.84 60.21 23.84 60.21 18.41 60.66 18.3 60.66 16.97"/><polygon class="cls-1" points="35.33 14.95 58.69 14.95 47.05 10.35 35.33 14.95"/><rect class="cls-1" x="46.14" y="7.44" width="1.86" height="2.47" rx="0.93"/><path class="cls-1" d="M34.58,14.93a.64.64,0,0,0,.19-.08l12.37-5-.51-1.25L34,13.69h-.47a.62.62,0,0,0-.62.62v0a.61.61,0,0,0,.62.61h.94Z"/><path class="cls-1" d="M59.46,14.93a.64.64,0,0,1-.19-.08l-12.37-5,.51-1.25L60,13.69h.47a.61.61,0,0,1,.61.62v0a.61.61,0,0,1-.61.61h-.95Z"/><path class="cls-1" d="M19.44,74.22H17.85v1.62h-.28V72.38h2.11v.24H17.85V74h1.59Z"/><path class="cls-1" d="M20,74.51a1.39,1.39,0,0,1,.31-.93,1.13,1.13,0,0,1,1.65,0,1.39,1.39,0,0,1,.31.93v.08a1.36,1.36,0,0,1-.31.93,1,1,0,0,1-.82.37,1,1,0,0,1-.83-.37,1.36,1.36,0,0,1-.31-.93Zm.29.08a1.21,1.21,0,0,0,.22.75.79.79,0,0,0,1.25,0,1.22,1.22,0,0,0,.23-.75v-.08a1.21,1.21,0,0,0-.23-.74.79.79,0,0,0-1.25,0,1.2,1.2,0,0,0-.22.74Z"/><path class="cls-1" d="M24,73.51h-.2a.68.68,0,0,0-.45.15.88.88,0,0,0-.24.41v1.78h-.29V73.27h.25l0,.43v0a.91.91,0,0,1,.3-.37.79.79,0,0,1,.44-.13H24a.15.15,0,0,1,.08,0Z"/><path class="cls-1" d="M25.56,74.57a1.7,1.7,0,0,1,.26-1,.85.85,0,0,1,.73-.37,1,1,0,0,1,.46.11,1,1,0,0,1,.33.32V72.13h.28v3.71h-.23l0-.38a1,1,0,0,1-.33.32,1,1,0,0,1-.48.11.87.87,0,0,1-.72-.35,1.5,1.5,0,0,1-.26-.92Zm.29.05a1.33,1.33,0,0,0,.18.74.64.64,0,0,0,.57.28.79.79,0,0,0,.45-.12.8.8,0,0,0,.29-.34V74a1,1,0,0,0-.28-.35.68.68,0,0,0-.46-.14.6.6,0,0,0-.56.31,1.45,1.45,0,0,0-.19.79Z"/><path class="cls-1" d="M29.36,75.89a1,1,0,0,1-.81-.36,1.28,1.28,0,0,1-.31-.9V74.5a1.35,1.35,0,0,1,.31-.92,1,1,0,0,1,.78-.36.89.89,0,0,1,.72.3,1.21,1.21,0,0,1,.26.81v.22H28.52v.08a1.17,1.17,0,0,0,.22.73.74.74,0,0,0,.62.29,1.22,1.22,0,0,0,.43-.08.81.81,0,0,0,.32-.21l.13.2a1.06,1.06,0,0,1-.36.23A1.38,1.38,0,0,1,29.36,75.89Zm0-2.43a.68.68,0,0,0-.54.24,1,1,0,0,0-.25.59v0H30v-.06a.84.84,0,0,0-.18-.56A.62.62,0,0,0,29.33,73.46Z"/><path class="cls-1" d="M31.12,73.27l0,.42a.93.93,0,0,1,.33-.35.94.94,0,0,1,.49-.12.86.86,0,0,1,.49.14.83.83,0,0,1,.28.43,1,1,0,0,1,.33-.42.89.89,0,0,1,.52-.15.77.77,0,0,1,.63.27,1.35,1.35,0,0,1,.23.85v1.5h-.29V74.33a1,1,0,0,0-.17-.67.56.56,0,0,0-.46-.19.61.61,0,0,0-.5.2.93.93,0,0,0-.23.51v1.66h-.28V74.33a1,1,0,0,0-.17-.66.57.57,0,0,0-.47-.2.73.73,0,0,0-.48.15.76.76,0,0,0-.24.41v1.81h-.29V73.27Z"/><path class="cls-1" d="M35,74.51a1.39,1.39,0,0,1,.31-.93,1.13,1.13,0,0,1,1.65,0,1.39,1.39,0,0,1,.31.93v.08a1.36,1.36,0,0,1-.31.93,1.1,1.1,0,0,1-1.65,0,1.36,1.36,0,0,1-.31-.93Zm.28.08a1.22,1.22,0,0,0,.23.75.79.79,0,0,0,1.25,0,1.22,1.22,0,0,0,.23-.75v-.08a1.21,1.21,0,0,0-.23-.74.79.79,0,0,0-1.25,0,1.21,1.21,0,0,0-.23.74Z"/><path class="cls-1" d="M38.83,75.65a.77.77,0,0,0,.49-.17.51.51,0,0,0,.21-.44h.26a.75.75,0,0,1-.28.6,1,1,0,0,1-.68.24,1,1,0,0,1-.79-.36,1.42,1.42,0,0,1-.29-.93v-.1a1.44,1.44,0,0,1,.28-.92,1.07,1.07,0,0,1,1.49-.11.85.85,0,0,1,.27.66h-.26a.61.61,0,0,0-.21-.49.66.66,0,0,0-.49-.19.67.67,0,0,0-.6.3,1.34,1.34,0,0,0-.2.74v.1a1.35,1.35,0,0,0,.2.75A.67.67,0,0,0,38.83,75.65Z"/><path class="cls-1" d="M41.57,73.51h-.2a.63.63,0,0,0-.44.15.82.82,0,0,0-.25.41v1.78H40.4V73.27h.24l0,.43v0a.91.91,0,0,1,.3-.37.8.8,0,0,1,.45-.13h.09a.15.15,0,0,1,.08,0Z"/><path class="cls-1" d="M43.68,75.84c0-.09,0-.17,0-.24a1.27,1.27,0,0,1,0-.2,1.07,1.07,0,0,1-.93.49.82.82,0,0,1-.58-.2.74.74,0,0,1-.21-.55.67.67,0,0,1,.3-.56,1.36,1.36,0,0,1,.79-.21h.63v-.32a.54.54,0,0,0-.18-.43.82.82,0,0,0-1,0,.42.42,0,0,0-.18.35H42a.63.63,0,0,1,.25-.51,1,1,0,0,1,.69-.22,1,1,0,0,1,.67.22.76.76,0,0,1,.26.62v1.26a1.1,1.1,0,0,0,0,.26,1.19,1.19,0,0,0,0,.26Zm-1-.21a1.05,1.05,0,0,0,.57-.15.8.8,0,0,0,.33-.4v-.49H43a.94.94,0,0,0-.57.16.49.49,0,0,0-.22.4.43.43,0,0,0,.14.35A.56.56,0,0,0,42.73,75.63Z"/><path class="cls-1" d="M45.61,75.65a.76.76,0,0,0,.48-.17A.51.51,0,0,0,46.3,75h.26a.75.75,0,0,1-.28.6,1,1,0,0,1-.67.24,1,1,0,0,1-.8-.36,1.47,1.47,0,0,1-.29-.93v-.1a1.45,1.45,0,0,1,.29-.92,1,1,0,0,1,.79-.36,1,1,0,0,1,.69.25.82.82,0,0,1,.27.66H46.3a.63.63,0,0,0-.2-.49.69.69,0,0,0-.5-.19.67.67,0,0,0-.6.3,1.34,1.34,0,0,0-.19.74v.1a1.35,1.35,0,0,0,.19.75A.68.68,0,0,0,45.61,75.65Z"/><path class="cls-1" d="M47.9,75.14l.09.31h0l.78-2.18h.31l-1.11,3a1.46,1.46,0,0,1-.26.44.59.59,0,0,1-.46.18h-.13l-.1,0,0-.24h.19a.35.35,0,0,0,.29-.13,1,1,0,0,0,.19-.34l.14-.35-1-2.53h.31Z"/><path class="cls-1" d="M49.64,75.84h-.33v-.39h.33Z"/><path class="cls-1" d="M53.57,74.22H52v1.62H51.7V72.38h2.11v.24H52V74h1.58Z"/><path class="cls-1" d="M54.1,74.51a1.45,1.45,0,0,1,.31-.93,1.05,1.05,0,0,1,.83-.36,1,1,0,0,1,.82.36,1.39,1.39,0,0,1,.31.93v.08a1.36,1.36,0,0,1-.31.93,1,1,0,0,1-.82.37,1,1,0,0,1-.83-.37,1.41,1.41,0,0,1-.31-.93Zm.29.08a1.21,1.21,0,0,0,.22.75.73.73,0,0,0,.63.31.71.71,0,0,0,.62-.31,1.16,1.16,0,0,0,.23-.75v-.08a1.15,1.15,0,0,0-.23-.74.79.79,0,0,0-1.25,0,1.2,1.2,0,0,0-.22.74Z"/><path class="cls-1" d="M58.14,73.51h-.2a.63.63,0,0,0-.44.15.82.82,0,0,0-.25.41v1.78H57V73.27h.25l0,.43v0a1.11,1.11,0,0,1,.3-.37.82.82,0,0,1,.45-.13h.1l.07,0Z"/><path class="cls-1" d="M60.78,75.89a1,1,0,0,1-.81-.36,1.33,1.33,0,0,1-.31-.9V74.5a1.36,1.36,0,0,1,.32-.92,1,1,0,0,1,.78-.36.89.89,0,0,1,.72.3,1.21,1.21,0,0,1,.25.81v.22H60v.08a1.17,1.17,0,0,0,.22.73.74.74,0,0,0,.61.29,1.18,1.18,0,0,0,.43-.08.93.93,0,0,0,.33-.21l.12.2a1.12,1.12,0,0,1-.35.23A1.39,1.39,0,0,1,60.78,75.89Zm0-2.43a.68.68,0,0,0-.54.24,1,1,0,0,0-.25.59v0h1.47v-.06a.84.84,0,0,0-.18-.56A.62.62,0,0,0,60.76,73.46Z"/><path class="cls-1" d="M63,75.19l.08.3h0l.09-.3.7-1.92h.3l-1,2.57H63l-1-2.57h.29Z"/><path class="cls-1" d="M65.6,75.89a1,1,0,0,1-.81-.36,1.28,1.28,0,0,1-.31-.9V74.5a1.35,1.35,0,0,1,.31-.92,1,1,0,0,1,.78-.36.91.91,0,0,1,.73.3,1.21,1.21,0,0,1,.25.81v.22H64.76v.08a1.18,1.18,0,0,0,.23.73.72.72,0,0,0,.61.29,1.18,1.18,0,0,0,.43-.08.93.93,0,0,0,.33-.21l.12.2a1.06,1.06,0,0,1-.36.23A1.34,1.34,0,0,1,65.6,75.89Zm0-2.43a.68.68,0,0,0-.54.24,1,1,0,0,0-.24.59v0h1.48v-.06a.84.84,0,0,0-.18-.56A.63.63,0,0,0,65.57,73.46Z"/><path class="cls-1" d="M67.82,75.14l.09.31h0l.77-2.18H69l-1.11,3a1.71,1.71,0,0,1-.26.44.6.6,0,0,1-.47.18h-.12l-.1,0,0-.24h.18a.35.35,0,0,0,.3-.13,1.21,1.21,0,0,0,.19-.34l.13-.35-1-2.53h.32Z"/><path class="cls-1" d="M69.28,74.51a1.39,1.39,0,0,1,.31-.93,1,1,0,0,1,.82-.36,1.05,1.05,0,0,1,.83.36,1.45,1.45,0,0,1,.31.93v.08a1.41,1.41,0,0,1-.31.93,1.1,1.1,0,0,1-1.65,0,1.36,1.36,0,0,1-.31-.93Zm.28.08a1.22,1.22,0,0,0,.23.75.79.79,0,0,0,1.25,0,1.22,1.22,0,0,0,.23-.75v-.08a1.21,1.21,0,0,0-.23-.74.79.79,0,0,0-1.25,0,1.21,1.21,0,0,0-.23.74Z"/><path class="cls-1" d="M72.39,73.27l0,.45a.87.87,0,0,1,.83-.5.81.81,0,0,1,.64.26,1.22,1.22,0,0,1,.21.79v1.57h-.28V74.27a.87.87,0,0,0-.17-.62.59.59,0,0,0-.46-.18.74.74,0,0,0-.49.15.76.76,0,0,0-.27.4v1.82h-.29V73.27Z"/><path class="cls-1" d="M75.82,75.89a1,1,0,0,1-.81-.36,1.33,1.33,0,0,1-.31-.9V74.5a1.36,1.36,0,0,1,.32-.92,1,1,0,0,1,.78-.36.89.89,0,0,1,.72.3,1.21,1.21,0,0,1,.25.81v.22H75v.08a1.17,1.17,0,0,0,.22.73.74.74,0,0,0,.61.29,1.18,1.18,0,0,0,.43-.08.85.85,0,0,0,.33-.21l.12.2a1.12,1.12,0,0,1-.35.23A1.39,1.39,0,0,1,75.82,75.89Zm0-2.43a.68.68,0,0,0-.54.24,1,1,0,0,0-.25.59v0h1.47v-.06a.84.84,0,0,0-.18-.56A.62.62,0,0,0,75.8,73.46Z"/></svg>