<?xml version="1.0" encoding="utf-8"?>
<!-- Generator: Adobe Illustrator 23.0.3, SVG Export Plug-In . SVG Version: 6.00 Build 0)  -->
<svg version="1.1" id="Layer_1" xmlns="http://www.w3.org/2000/svg" xmlns:xlink="http://www.w3.org/1999/xlink" x="0px" y="0px"
	 viewBox="0 0 303.3 61.8" style="enable-background:new 0 0 303.3 61.8;" xml:space="preserve">
<style type="text/css">
	.st0{fill-rule:evenodd;clip-rule:evenodd;fill:#00639B;}
	.st1{fill-rule:evenodd;clip-rule:evenodd;fill:#00B0BD;}
	.st2{fill:#00B0BD;}
	.st3{fill:#72777B;}
</style>
<g>
	<g>
		<g>
			<path class="st0" d="M43.3,6.1c3.8,1.2,7.3,2.7,9.4,4.2l-0.2-0.6l-2.2-2c-0.7-2.4-8.1-6.1-12.7-6C38.2,3.4,39.8,4.9,43.3,6.1"/>
			<path class="st0" d="M56.4,15.8c-2.1-2.2-5.7-7.5-9.5-6.2c0.7,0.7,1.7,1.9,3.1,3.2c2.3,2.2,5.6,4.2,6.6,4.1c1,1.1,2,3.3,3,5.7
				c0-1.5-1-4.2-2.1-6.2c0.4-4.9-2.6-9.6-7.2-12.7c-0.4,1.7,0.8,3.9,2.8,6.8C54.4,12.3,55.5,14.2,56.4,15.8"/>
			<path class="st0" d="M60.2,29.6c-0.8-3-1.3-9.8-5.4-10.6c0.3,1,0.5,2.4,1.2,4.6c1,3.2,2.9,6.7,3.9,7.2c0.3,1.5,0.1,4-0.2,6.7
				c0.8-1.3,1.3-4.3,1.3-6.8c2.9-4.2,2.6-10.1,0-15.2c-1.2,1.4-1.2,3.9-0.9,7.6C60.2,25.4,60.2,27.7,60.2,29.6"/>
			<path class="st0" d="M58.8,39.8c-1.1,1.9-2.4,3.9-3.5,5.4c1.1-2.9,4.5-8.8,1.6-11.8c-0.4,1-1,2.3-1.6,4.4c-1,3.2-1.5,7.2-0.9,8.1
				c-0.6,1.4-2.2,3.4-4,5.4c1.4-0.7,3.5-2.8,4.9-4.8c4.8-1.8,7.9-6.9,8.7-12.5C62.1,34.5,60.7,36.6,58.8,39.8"/>
			<path class="st0" d="M45.8,53.8c-2,1-4.9,2.4-6.9,3.1c0-0.1,0-0.1-0.1-0.1c3-2.1,10.1-5.7,9.2-10.4c-1,0.7-2.4,1.5-4.5,3.2
				c-3,2.5-6.1,6-6.1,7.3c-1,0.7-3,1.4-4.8,1.9c-1.9-0.5-3.9-1.3-4.8-1.9c-0.1-1.3-3.1-4.9-6.1-7.3c-2.1-1.7-3.5-2.5-4.5-3.2
				c-0.9,4.8,6.2,8.3,9.2,10.4c0,0.1,0,0.1-0.1,0.1c-1.9-0.8-4.8-2.1-6.9-3.1c-3.9-2-6.6-3-8.7-2.3c4.4,5,10.7,7.9,16.5,6.5
				c1.1,0.4,2.6,0.8,4,1.2c-0.5,0.1-0.9,0.2-1.3,0.3c0.2,0.3,0.2,0.3,0.4,0.6c0.6-0.1,1.3-0.3,2.2-0.5c0.8,0.2,1.6,0.4,2.2,0.5
				c0.3-0.2,0.2-0.2,0.4-0.6c-0.4-0.1-0.8-0.2-1.3-0.3c1.4-0.4,3-0.8,4-1.2c5.8,1.4,12.1-1.6,16.5-6.5
				C52.4,50.8,49.6,51.8,45.8,53.8"/>
			<path class="st0" d="M50.5,47.5c0,0.6,0.5,1.1,1.1,1.1s1.1-0.5,1.1-1.1s-0.5-1.1-1.1-1.1C51,46.3,50.5,46.8,50.5,47.5"/>
			<path class="st0" d="M61.5,33c0,0.6,0.5,1.1,1.1,1.1s1.1-0.5,1.1-1.1c0-0.6-0.5-1.1-1.1-1.1C62,31.8,61.5,32.4,61.5,33"/>
			<path class="st0" d="M12.5,10.3c2.1-1.5,5.6-3,9.4-4.2c3.5-1.2,5.1-2.7,5.7-4.4c-4.6-0.1-12,3.6-12.7,6l-2.2,2L12.5,10.3z"/>
			<path class="st0" d="M8.6,16.9c1,0.1,4.3-1.9,6.6-4.1c1.5-1.4,2.4-2.5,3.1-3.2c-3.7-1.3-7.4,4.1-9.5,6.2c0.9-1.6,2-3.5,3.2-5.3
				c2-2.9,3.2-5,2.8-6.8c-4.4,3.1-7.5,7.8-7.1,12.7c-1.2,2-2.1,4.7-2.1,6.2C6.6,20.2,7.6,18,8.6,16.9"/>
			<path class="st0" d="M5.6,37.5c-0.4-2.7-0.6-5.3-0.2-6.7c1-0.4,2.9-4,3.9-7.2c0.7-2.1,0.9-3.5,1.2-4.6C6.3,19.8,5.8,26.6,5,29.6
				c0-1.9,0-4.2,0.2-6.5c0.3-3.7,0.3-6.2-0.9-7.6c-2.6,5.1-2.9,11,0,15.2C4.3,33.2,4.8,36.2,5.6,37.5"/>
			<path class="st0" d="M14.9,51.4c-1.8-2-3.5-4-4-5.4c0.6-0.9,0.1-4.9-0.9-8.1c-0.7-2.1-1.3-3.4-1.7-4.4c-2.9,3,0.5,8.8,1.6,11.8
				c-1.1-1.6-2.4-3.6-3.5-5.5c-1.8-3.2-3.3-5.3-5.1-5.8c0.8,5.7,3.9,10.8,8.7,12.6C11.4,48.6,13.5,50.7,14.9,51.4"/>
			<path class="st0" d="M12.5,47.5c0,0.6,0.5,1.1,1.1,1.1s1.1-0.5,1.1-1.1s-0.5-1.1-1.1-1.1C13,46.3,12.5,46.8,12.5,47.5"/>
			<path class="st0" d="M2.6,34.1c0.6,0,1.1-0.5,1.1-1.1c0-0.6-0.5-1.1-1.1-1.1S1.5,32.4,1.5,33C1.4,33.6,1.9,34.1,2.6,34.1"/>
		</g>
		<g>
			<path class="st1" d="M32.6,12.6l13.2,5.2c0.4,0.2,0.7,0.2,1.1,0.2c0.7-0.1,1.4-1.5-0.4-1.3l-12.9-5.3c0.1-0.7-0.5-1.4-1-1.4
				s-1.1,0.7-1,1.4l-12.9,5.3c-1.8-0.2-1.1,1.3-0.4,1.3c0.4,0,0.7,0,1.1-0.2L32.6,12.6z"/>
			<rect x="18.1" y="18.5" class="st1" width="28.9" height="1.2"/>
			<path class="st1" d="M46.5,27.3v-5.8c0.2,0,0.4-0.1,0.4-0.3v-1.1h-2.3v1.1c0,0.2,0.2,0.4,0.4,0.3v5.8
				C45,27.3,46.5,27.3,46.5,27.3z"/>
			<path class="st1" d="M41.2,27.3v-5.8c0.2,0,0.4-0.1,0.4-0.3v-1.1h-2.3v1.1c0,0.2,0.2,0.4,0.4,0.3v5.8
				C39.7,27.3,41.2,27.3,41.2,27.3z"/>
			<path class="st1" d="M36,27.3v-5.8c0.2,0,0.4-0.1,0.4-0.3v-1.1h-2.3v1.1c0,0.2,0.2,0.4,0.4,0.3v5.8C34.5,27.3,36,27.3,36,27.3z"
				/>
			<rect x="18.1" y="27.7" class="st1" width="28.9" height="1.2"/>
			<rect x="16.6" y="29.3" class="st1" width="32" height="1.5"/>
			<polygon class="st1" points="19.9,18.1 32.5,13.1 45.3,18.1 			"/>
			<path class="st1" d="M18.6,27.3v-5.8c-0.2,0-0.4-0.1-0.4-0.3v-1.1h2.3v1.1c0,0.2-0.2,0.4-0.4,0.3v5.8
				C20.1,27.3,18.6,27.3,18.6,27.3z"/>
			<path class="st1" d="M23.9,27.3v-5.8c-0.2,0-0.4-0.1-0.4-0.3v-1.1h2.3v1.1c0,0.2-0.2,0.4-0.4,0.3v5.8
				C25.4,27.3,23.9,27.3,23.9,27.3z"/>
			<path class="st1" d="M29.1,27.3v-5.8c-0.2,0-0.4-0.1-0.4-0.3v-1.1H31v1.1c0,0.2-0.2,0.4-0.4,0.3v5.8
				C30.6,27.3,29.1,27.3,29.1,27.3z"/>
			<path class="st2" d="M22.1,41.4h-1.4v-7.7h1.4V41.4z M26.6,35.6c0,0.2,0.1,0.4,0.2,0.5s0.3,0.2,0.5,0.2s0.4-0.1,0.5-0.2
				c0.1-0.1,0.2-0.3,0.2-0.6c0-0.2-0.1-0.4-0.2-0.5s-0.3-0.2-0.5-0.2s-0.4,0.1-0.5,0.2C26.7,35.2,26.6,35.4,26.6,35.6 M26.3,39.1
				c0,0.3,0.1,0.6,0.3,0.8c0.2,0.2,0.4,0.3,0.7,0.3c0.3,0,0.6-0.1,0.8-0.3c0.2-0.2,0.3-0.5,0.3-0.8s-0.1-0.6-0.3-0.8
				c-0.2-0.2-0.4-0.3-0.8-0.3c-0.3,0-0.5,0.1-0.7,0.3C26.3,38.5,26.3,38.8,26.3,39.1 M26,37.1c-0.3-0.2-0.5-0.4-0.6-0.6
				c-0.1-0.3-0.2-0.5-0.2-0.9c0-0.6,0.2-1,0.6-1.4s0.9-0.6,1.5-0.6s1.1,0.2,1.6,0.6c0.4,0.4,0.6,0.9,0.6,1.4c0,0.3-0.1,0.6-0.2,0.9
				c-0.1,0.3-0.4,0.5-0.7,0.6c0.4,0.2,0.7,0.5,0.9,0.8c0.2,0.3,0.3,0.7,0.3,1.1c0,0.7-0.2,1.3-0.7,1.8s-1.1,0.7-1.8,0.7
				c-0.7,0-1.3-0.2-1.8-0.7s-0.7-1.1-0.7-1.8c0-0.4,0.1-0.8,0.3-1.1C25.3,37.6,25.6,37.3,26,37.1 M33.9,35.6c0,0.2,0.1,0.4,0.2,0.5
				c0.1,0.1,0.3,0.2,0.5,0.2s0.4-0.1,0.5-0.2c0.1-0.1,0.2-0.3,0.2-0.6c0-0.2-0.1-0.4-0.2-0.5c-0.1-0.1-0.3-0.2-0.5-0.2
				s-0.4,0.1-0.5,0.2C33.9,35.2,33.9,35.4,33.9,35.6 M33.5,39.1c0,0.3,0.1,0.6,0.3,0.8s0.4,0.3,0.7,0.3s0.6-0.1,0.8-0.3
				s0.3-0.5,0.3-0.8s-0.1-0.6-0.3-0.8S34.9,38,34.5,38c-0.3,0-0.5,0.1-0.7,0.3C33.6,38.5,33.5,38.8,33.5,39.1 M33.3,37.1
				c-0.3-0.2-0.5-0.4-0.6-0.6c-0.1-0.3-0.2-0.5-0.2-0.9c0-0.6,0.2-1,0.6-1.4s0.9-0.6,1.5-0.6s1.1,0.2,1.6,0.6
				c0.4,0.4,0.6,0.9,0.6,1.4c0,0.3-0.1,0.6-0.2,0.9c-0.1,0.3-0.4,0.5-0.7,0.6c0.4,0.2,0.7,0.5,0.9,0.8s0.3,0.7,0.3,1.1
				c0,0.7-0.2,1.3-0.7,1.8s-1.1,0.7-1.8,0.7s-1.3-0.2-1.8-0.7s-0.7-1.1-0.7-1.8c0-0.4,0.1-0.8,0.3-1.1
				C32.5,37.6,32.8,37.3,33.3,37.1 M43.1,36.3c0-0.4-0.1-0.7-0.4-1c-0.2-0.3-0.5-0.4-0.9-0.4s-0.6,0.1-0.9,0.4
				c-0.2,0.2-0.3,0.6-0.3,1s0.1,0.7,0.3,1s0.5,0.4,0.9,0.4c0.3,0,0.6-0.1,0.9-0.4C42.9,37,43.1,36.7,43.1,36.3 M41.8,41.4h-1.5
				l1.7-2.6c-0.1,0-0.2,0-0.3,0.1c-0.1,0-0.2,0-0.2,0c-0.6,0-1.1-0.2-1.6-0.8c-0.4-0.5-0.6-1.1-0.6-1.8c0-0.3,0.1-0.6,0.2-0.9
				c0.1-0.3,0.3-0.6,0.5-0.8c0.3-0.3,0.6-0.6,0.9-0.7c0.3-0.2,0.7-0.2,1.1-0.2c0.4,0,0.7,0.1,1,0.2c0.3,0.1,0.6,0.3,0.8,0.6
				c0.2,0.2,0.4,0.5,0.6,0.8c0.1,0.3,0.2,0.6,0.2,1s-0.1,0.8-0.2,1.1c-0.1,0.4-0.4,0.9-0.8,1.5L41.8,41.4z"/>
		</g>
	</g>
	<g>
		<path class="st3" d="M82,36.7V22h1.3v14.7H82z"/>
		<path class="st3" d="M88,36.7h-1.2v-7.9c0-0.8-0.1-1.6-0.1-2.3H88l0.1,1.5l0,0c0.7-1.3,1.9-1.8,3.2-1.8c3.3,0,3.6,2.9,3.6,4.1v6.4
			h-1.2v-6.6c0-1.8-1-2.8-2.7-2.8c-2,0-2.9,1.7-2.9,3.5v5.9H88z"/>
		<path class="st3" d="M98.5,27.6h-2v-1.1h2v-2.2l1.2-0.5v2.7h2.3v1.1h-2.3v6.8c0,0.9,0.5,1.4,1.4,1.4c0.4,0,0.7,0,1.1-0.1v1.1
			c-0.4,0.1-0.8,0.2-1.2,0.2c-2.6,0-2.4-1.6-2.4-3L98.5,27.6L98.5,27.6z"/>
		<path class="st3" d="M104.5,31.9c0,2.2,1,4,3.5,4c1.4,0,2.6-1,2.9-2.4h1.3c-0.6,2.4-2.2,3.5-4.6,3.5c-3,0-4.5-2.6-4.5-5.4
			s1.5-5.4,4.5-5.4c3.4,0,4.6,2.5,4.6,5.7C112.2,31.9,104.5,31.9,104.5,31.9z M111,30.7c-0.1-2-1.2-3.4-3.3-3.4c-2,0-3,1.7-3.2,3.4
			H111z"/>
		<path class="st3" d="M116,36.7h-1.2v-7.9c0-0.8-0.1-1.6-0.1-2.3h1.3l0.1,1.5l0,0c0.4-1,1.3-1.8,2.3-1.8c0.4,0,0.8,0,1.2,0v1.2
			c-0.2,0-0.5-0.1-0.8-0.1c-1.8,0-2.8,1.3-2.8,3.2V36.7z"/>
		<path class="st3" d="M119.5,30.6h5.1v1.2h-5.1V30.6z"/>
		<path class="st3" d="M127.5,36.7V22h3.7c2.8-0.1,6,0.6,6,4.1s-3.2,4.2-6,4.1h-2.4v6.5H127.5z M128.8,29.1h3.2c2,0,3.7-0.6,3.7-2.9
			s-1.7-2.9-3.7-2.9h-3.2V29.1z"/>
		<path class="st3" d="M145.1,29.5c-0.1-1.7-1-2.2-2.4-2.2c-1.3,0-2.3,0.4-2.5,1.8h-1.3c0.3-2.1,1.9-2.9,3.8-2.9
			c2.3,0,3.7,1,3.6,3.4v4.8c0,0.8,0.1,1.6,0.1,2.3h-1.3v-1.5l0,0l-0.1,0.1c-0.4,0.9-1.8,1.7-3.2,1.7c-1.9,0-3.4-1.2-3.4-3.1
			c0-1.4,0.8-2.4,2-2.9c1.4-0.6,3.1-0.4,4.6-0.5L145.1,29.5L145.1,29.5z M142.1,35.9c2.7,0,3.2-2.2,3-4.3c-1.7,0.1-5.3-0.3-5.3,2.3
			C139.8,35.2,140.8,35.9,142.1,35.9z"/>
		<path class="st3" d="M150.4,36.7h-1.2v-7.9c0-0.8-0.1-1.6-0.1-2.3h1.3l0.1,1.5l0,0c0.4-1,1.3-1.8,2.3-1.8c0.4,0,0.8,0,1.2,0v1.2
			c-0.2,0-0.5-0.1-0.8-0.1c-1.8,0-2.8,1.3-2.8,3.2V36.7z"/>
		<path class="st3" d="M157,36.7h-1.2V22h1.2V36.7z"/>
		<path class="st3" d="M161.3,23.5h-1.4V22h1.4V23.5z M161.2,26.5v10.2H160V26.5H161.2z"/>
		<path class="st3" d="M170,29.5c-0.1-1.7-1-2.2-2.4-2.2c-1.3,0-2.3,0.4-2.5,1.8h-1.3c0.3-2.1,1.9-2.9,3.8-2.9c2.2,0,3.7,1,3.6,3.4
			v4.8c0,0.8,0.1,1.6,0.1,2.3H170v-1.5l0,0l-0.1,0.1c-0.4,0.9-1.8,1.7-3.2,1.7c-1.9,0-3.4-1.2-3.4-3.1c0-1.4,0.8-2.4,2-2.9
			c1.4-0.6,3.1-0.4,4.6-0.5L170,29.5L170,29.5z M167,35.9c2.7,0,3.2-2.2,3-4.3c-1.7,0.1-5.3-0.3-5.3,2.3
			C164.7,35.2,165.7,35.9,167,35.9z"/>
		<path class="st3" d="M175.3,28L175.3,28c0.8-1.2,1.9-1.8,3.2-1.8c1.6,0,2.9,0.9,3.3,2.2c0.8-1.2,1.9-2.2,3.5-2.2
			c3.3,0,3.6,2.9,3.6,4.1v6.4h-1.2v-6.6c0-1.8-1-2.8-2.7-2.8c-2,0-2.9,1.7-2.9,3.5v5.9h-1.2v-6.6c0-1.8-1-2.8-2.7-2.8
			c-2,0-2.9,1.7-2.9,3.5v5.9h-1.2v-7.9c0-0.8-0.1-1.6-0.1-2.3h1.3L175.3,28z"/>
		<path class="st3" d="M192.6,31.9c0,2.2,1,4,3.5,4c1.4,0,2.6-1,2.9-2.4h1.3c-0.6,2.4-2.2,3.5-4.6,3.5c-3,0-4.5-2.6-4.5-5.4
			s1.5-5.4,4.5-5.4c3.4,0,4.6,2.5,4.6,5.7C200.3,31.9,192.6,31.9,192.6,31.9z M199.1,30.7c-0.1-2-1.2-3.4-3.3-3.4
			c-2,0-3,1.7-3.2,3.4H199.1z"/>
		<path class="st3" d="M204.1,36.7h-1.2v-7.9c0-0.8-0.1-1.6-0.1-2.3h1.3l0.1,1.5l0,0c0.7-1.3,1.9-1.8,3.2-1.8c3.3,0,3.6,2.9,3.6,4.1
			v6.4h-1.2v-6.6c0-1.8-1-2.8-2.7-2.8c-2,0-2.9,1.7-2.9,3.5v5.9H204.1z"/>
		<path class="st3" d="M214.5,27.6h-2v-1.1h2v-2.2l1.2-0.5v2.7h2.3v1.1h-2.3v6.8c0,0.9,0.5,1.4,1.4,1.4c0.4,0,0.7,0,1.1-0.1v1.1
			c-0.4,0.1-0.8,0.2-1.2,0.2c-2.6,0-2.4-1.6-2.4-3v-6.4H214.5z"/>
		<path class="st3" d="M226.1,29.5c-0.1-1.7-1-2.2-2.4-2.2c-1.3,0-2.3,0.4-2.5,1.8h-1.3c0.3-2.1,1.9-2.9,3.8-2.9
			c2.2,0,3.7,1,3.6,3.4v4.8c0,0.8,0.1,1.6,0.1,2.3h-1.3v-1.5l0,0l-0.1,0.1c-0.4,0.9-1.8,1.7-3.2,1.7c-1.9,0-3.4-1.2-3.4-3.1
			c0-1.4,0.8-2.4,2-2.9c1.4-0.6,3.1-0.4,4.6-0.5L226.1,29.5L226.1,29.5z M223.1,35.9c2.7,0,3.2-2.2,3-4.3c-1.7,0.1-5.3-0.3-5.3,2.3
			C220.8,35.2,221.9,35.9,223.1,35.9z"/>
		<path class="st3" d="M231.5,36.7h-1.2v-7.9c0-0.8-0.1-1.6-0.1-2.3h1.3l0.1,1.5l0,0c0.4-1,1.3-1.8,2.3-1.8c0.4,0,0.8,0,1.2,0v1.2
			c-0.2,0-0.5-0.1-0.8-0.1c-1.8,0-2.8,1.3-2.8,3.2V36.7z"/>
		<path class="st3" d="M237.6,26.5L241,35l3.4-8.5h1.3l-5.6,14.1h-1.3l1.5-3.9l-4.2-10.2H237.6z"/>
		<path class="st3" d="M255,22v9.5c0.1,2.7,1.6,4.3,4,4.3s3.9-1.6,4-4.3V22h1.3v9.5c0,3.1-1.8,5.5-5.4,5.5s-5.3-2.3-5.4-5.5V22H255z
			"/>
		<path class="st3" d="M268.9,36.7h-1.2v-7.9c0-0.8-0.1-1.6-0.1-2.3h1.3L269,28l0,0c0.7-1.3,1.9-1.8,3.2-1.8c3.3,0,3.6,2.9,3.6,4.1
			v6.4h-1.2v-6.6c0-1.8-1-2.8-2.7-2.8c-2,0-2.9,1.7-2.9,3.5L268.9,36.7L268.9,36.7z"/>
		<path class="st3" d="M280,23.5h-1.4V22h1.4V23.5z M279.9,26.5v10.2h-1.2V26.5H279.9z"/>
		<path class="st3" d="M291.6,31.6c0,2.7-1.5,5.4-4.7,5.4s-4.7-2.7-4.7-5.4s1.5-5.4,4.7-5.4S291.6,28.9,291.6,31.6z M286.9,27.3
			c-2.5,0-3.4,2.4-3.4,4.3s1,4.3,3.4,4.3s3.4-2.4,3.4-4.3S289.3,27.3,286.9,27.3z"/>
		<path class="st3" d="M295.2,36.7H294v-7.9c0-0.8-0.1-1.6-0.1-2.3h1.3l0.1,1.5l0,0c0.7-1.3,1.9-1.8,3.2-1.8c3.3,0,3.6,2.9,3.6,4.1
			v6.4h-1.2v-6.6c0-1.8-1-2.8-2.7-2.8c-2,0-2.9,1.7-2.9,3.5L295.2,36.7L295.2,36.7z"/>
	</g>
</g>
</svg>
